<svg xmlns="http://www.w3.org/2000/svg"><symbol id="icon-pdf"><title>icon-pdf</title> <g> <path d="M21.128,41.067c-0.515,0-0.933-0.417-0.933-0.933V28.949c0-0.514,0.418-0.933,0.933-0.933h11.187
		c0.514,0,0.934,0.419,0.934,0.933c0,0.517-0.42,0.934-0.934,0.934H22.061v10.254C22.061,40.652,21.642,41.067,21.128,41.067"/> <path d="M21.128,42H1.865C0.833,42,0,41.168,0,40.137V28.949c0-1.029,0.833-1.863,1.864-1.863s1.864,0.834,1.864,1.863v9.322
		h16.627l10.094-10.093V3.729H1.865C0.833,3.729,0,2.895,0,1.863S0.833,0,1.865,0h30.449c1.03,0,1.864,0.832,1.864,1.863v27.085
		c0,0.497-0.196,0.972-0.546,1.318L22.446,41.454C22.097,41.807,21.623,42,21.128,42"/> <path d="M8.652,10.925v2.208c0,2.714-1.309,4.192-3.976,4.192h-1.26V23.7H0.748V6.731h3.928C7.343,6.731,8.652,8.21,8.652,10.925
		 M3.417,9.158v5.744h1.26c0.849,0,1.309-0.388,1.309-1.6v-2.547c0-1.211-0.46-1.598-1.309-1.598H3.417z"/> <path d="M9.888,6.731h4.217c2.666,0,3.976,1.479,3.976,4.193v8.583c0,2.715-1.31,4.192-3.976,4.192H9.888V6.731z M12.554,9.158
		v12.119h1.505c0.848,0,1.357-0.437,1.357-1.65v-8.82c0-1.214-0.51-1.647-1.357-1.647L12.554,9.158L12.554,9.158z"/> <polygon points="22.443,14.27 25.884,14.27 25.884,16.696 22.443,16.696 22.443,23.7 19.774,23.7 19.774,6.731 26.831,6.731 
		26.831,9.158 22.443,9.158 	"/> </g> </symbol><symbol viewBox="-11.246 -9.736 48.511 42" id="icon-print"><title>icon-print</title> <g> <path d="M-10.314,32.264c-0.512,0-0.932-0.419-0.932-0.933V15.712c0-0.512,0.28-1.244,0.623-1.626l4.845-5.384
		c0.343-0.381,1.043-0.694,1.555-0.694h2.598c0.513,0,0.932,0.42,0.932,0.932v1.495c0,0.514-0.419,0.933-0.932,0.933h-1.076
		c-0.512,0-1.21,0.311-1.555,0.694l-2.953,3.286c-0.344,0.382-0.625,1.11-0.625,1.626v10.995c0,0.514,0.42,0.932,0.932,0.932h39.873
		c0.514,0,0.933-0.418,0.933-0.932V16.974c0-0.514-0.278-1.244-0.623-1.626l-2.957-3.286c-0.342-0.381-1.041-0.694-1.555-0.694
		h-1.072c-0.514,0-0.932-0.419-0.932-0.933V8.941c0-0.512,0.418-0.932,0.932-0.932h2.599c0.513,0,1.21,0.313,1.553,0.695l4.796,5.38
		c0.342,0.382,0.621,1.116,0.621,1.628v15.619c0,0.514-0.421,0.933-0.933,0.933H-10.314z M0.239,15.515
		c-0.513,0-0.932-0.42-0.932-0.932v-15.46c0-0.513,0.297-1.229,0.661-1.593l6.609-6.609c0.36-0.36,1.078-0.657,1.589-0.657h17.667
		c0.512,0,0.933,0.419,0.933,0.932v23.387c0,0.512-0.421,0.932-0.933,0.932H0.239z M2.459,11.382c0,0.512,0.418,0.933,0.932,0.933
		h19.292c0.513,0,0.932-0.421,0.932-0.933V-5.656c0-0.512-0.419-0.932-0.932-0.932H11.318c-0.514,0-0.932,0.42-0.932,0.932v6.063
		c0,0.514-0.421,0.932-0.932,0.932H3.391c-0.514,0-0.932,0.421-0.932,0.932V11.382z"/> </g> </symbol><symbol viewBox="0 0 154.465 118.617" id="logo-main"><title>logo-main</title> <polygon points="54.066,0 0,118.617 27.212,118.617 54.066,59.7 80.921,118.617 108.133,118.617 "/> <polygon points="100.399,0 46.333,118.617 73.544,118.617 100.399,59.7 127.255,118.617 154.466,118.617 "/> </symbol><symbol viewBox="0 0 160.827 33.628" id="work-nine82"><title>work-nine82</title> <g> <path d="M25.081,0c0.03,0.436,0.086,0.872,0.086,1.308
		c0.005,10.263,0.005,20.525,0.003,30.787c0,1.501-0.006,1.503-1.515,1.507c-1.278,0.003-2.559-0.048-3.833,0.018
		c-0.856,0.044-1.311-0.307-1.722-1.027c-3.324-5.837-6.684-11.654-10.04-17.473c-0.154-0.268-0.218-0.622-0.587-0.757
		c-0.288,0.36-0.154,0.775-0.154,1.153C7.308,21.03,7.314,26.544,7.31,32.059c-0.001,1.538-0.01,1.54-1.505,1.543
		c-1.497,0.002-2.997-0.051-4.491,0.019C0.313,33.666-0.008,33.323,0,32.316c0.041-5.26,0.019-10.519,0.019-15.777
		c0-5.004-0.002-10.007,0.004-15.011C0.023,1.019,0.073,0.509,0.1,0h6.574c0.087,0.2,0.157,0.409,0.264,0.598
		c3.438,6.01,6.878,12.018,10.327,18.022c0.111,0.193,0.154,0.509,0.581,0.478v-1.195c0-5.433,0-10.863,0.001-16.295
		C17.848,1.062,17.801,0.509,18.069,0H25.081z"/> <path d="M72.852,0c0.03,0.436,0.086,0.872,0.086,1.308
		c0.005,10.263,0.005,20.525,0.003,30.787c0,1.501-0.006,1.503-1.515,1.507c-1.278,0.003-2.559-0.048-3.833,0.018
		c-0.856,0.044-1.311-0.307-1.722-1.027c-3.324-5.837-6.684-11.654-10.04-17.473c-0.154-0.268-0.218-0.621-0.587-0.757
		c-0.288,0.36-0.154,0.775-0.154,1.153c-0.011,5.515-0.005,11.029-0.009,16.543c-0.001,1.538-0.01,1.54-1.505,1.543
		c-1.497,0.002-2.997-0.051-4.491,0.019c-1.001,0.046-1.322-0.297-1.314-1.304c0.041-5.26,0.019-10.519,0.019-15.777
		c0-5.004-0.002-10.007,0.004-15.011c0-0.509,0.05-1.019,0.077-1.528h6.574c0.087,0.2,0.157,0.409,0.264,0.598
		c3.438,6.01,6.878,12.018,10.327,18.022c0.111,0.193,0.154,0.509,0.581,0.478v-1.195c0-5.433,0-10.863,0.001-16.295
		C65.619,1.062,65.572,0.509,65.84,0H72.852z"/> <path d="M101.777,0c0.43,1.949,0.187,3.921,0.157,5.881
		c-0.011,0.793-0.743,0.669-1.265,0.671c-3.177,0.014-6.352,0.008-9.527,0.008c-3.19,0-3.19,0-3.19,3.172
		c0,1.058,0.054,2.121-0.019,3.174c-0.056,0.822,0.202,1.07,1.032,1.059c3.284-0.044,6.569,0.025,9.854-0.042
		c1.115-0.023,1.505,0.34,1.44,1.433c-0.07,1.164-0.062,2.337-0.002,3.502c0.051,1.015-0.27,1.421-1.36,1.399
		c-3.247-0.063-6.497,0.003-9.745-0.039c-0.902-0.011-1.242,0.287-1.213,1.195c0.05,1.531,0.044,3.065,0.004,4.598
		c-0.022,0.863,0.332,1.144,1.17,1.139c3.979-0.027,7.957,0.017,11.936-0.03c1.04-0.012,1.45,0.312,1.395,1.372
		c-0.066,1.31-0.049,2.628-0.006,3.94c0.029,0.908-0.344,1.188-1.232,1.185c-6.425-0.028-12.849-0.035-19.271,0.005
		c-1.029,0.007-1.295-0.351-1.291-1.326c0.033-6.789,0.008-13.578,0.021-20.366C80.671,7.953,80.714,3.977,80.74,0H101.777z"/> <path d="M160.827,10.729c-0.454,3.881-2.714,6.75-5.252,9.489
		c-1.839,1.985-3.591,4.049-5.557,6.275c2.529,0,4.819-0.022,7.109,0.006c3.188,0.038,2.794-0.515,2.825,2.852
		c0.01,0.932-0.014,1.861-0.001,2.792c0.01,0.688-0.262,1.004-0.993,1.002c-6.44-0.016-12.88-0.015-19.319-0.001
		c-0.724,0.001-0.95-0.3-0.994-0.996c-0.109-1.762,0.198-3.231,1.478-4.674c3.953-4.45,7.724-9.062,11.553-13.622
		c0.477-0.567,0.915-1.174,1.309-1.802c0.766-1.222,1.011-2.545,0.131-3.774c-0.905-1.267-2.329-1.583-3.788-1.423
		c-1.985,0.217-3.249,1.426-3.781,3.313c-0.262,0.926-0.665,1.153-1.596,0.936c-1.409-0.329-2.851-0.529-4.286-0.735
		c-0.652-0.094-0.938-0.366-0.796-1.032c0.881-4.122,3.528-8.308,9.149-9.16c5.497-0.833,10.169,1.58,12.077,6.085
		c0.367,0.868,0.473,1.793,0.732,2.682V10.729z"/> <path d="M39.982,0c0.225,0.52,0.199,1.071,0.199,1.618
		c0,10.114,0.001,20.228-0.001,30.342c0,1.639-0.006,1.641-1.624,1.642c-1.497,0.001-2.996-0.042-4.491,0.016
		c-0.91,0.034-1.195-0.303-1.19-1.2c0.029-5.768,0.014-11.537,0.014-17.306c0-4.528-0.003-9.056,0.004-13.583
		c0-0.509,0.05-1.019,0.077-1.528H39.982z"/> <path d="M121.489,33.617c-4.989-0.156-9.059-1.986-11.4-6.637
		c-2.099-4.164-0.88-9.051,2.817-11.906c0.386-0.298,0.839-0.475,0.3-1.093c-2.829-3.236-2.339-8.393,1.523-11.603
		c5.012-4.166,13.139-2.668,15.957,2.989c1.467,2.943,1.313,5.827-0.753,8.487c-0.332,0.427-0.593,0.699,0.026,1.138
		c5.821,4.125,5.409,13.669-2.715,17.425C125.435,33.255,123.522,33.707,121.489,33.617 M121.522,17.677
		c-2.517-0.017-4.366,1.124-5.028,3.1c-0.889,2.657,0.614,5.232,3.528,6.046c2.836,0.791,5.962-0.854,6.569-3.457
		C127.324,20.217,125.082,17.701,121.522,17.677 M121.543,6.488c-1.911-0.013-3.225,1.099-3.264,2.765
		c-0.042,1.792,1.216,2.995,3.151,3.012c2.004,0.017,3.202-1.068,3.196-2.896C124.621,7.551,123.499,6.502,121.543,6.488"/> </g> </symbol><symbol viewBox="0 0 160.827 33.628" id="work-pif"><title>work-pif</title> <g> <path d="M25.081,0c0.03,0.436,0.086,0.872,0.086,1.308
		c0.005,10.263,0.005,20.525,0.003,30.787c0,1.501-0.006,1.503-1.515,1.507c-1.278,0.003-2.559-0.048-3.833,0.018
		c-0.856,0.044-1.311-0.307-1.722-1.027c-3.324-5.837-6.684-11.654-10.04-17.473c-0.154-0.268-0.218-0.622-0.587-0.757
		c-0.288,0.36-0.154,0.775-0.154,1.153C7.308,21.03,7.314,26.544,7.31,32.059c-0.001,1.538-0.01,1.54-1.505,1.543
		c-1.497,0.002-2.997-0.051-4.491,0.019C0.313,33.666-0.008,33.323,0,32.316c0.041-5.26,0.019-10.519,0.019-15.777
		c0-5.004-0.002-10.007,0.004-15.011C0.023,1.019,0.073,0.509,0.1,0h6.574c0.087,0.2,0.157,0.409,0.264,0.598
		c3.438,6.01,6.878,12.018,10.327,18.022c0.111,0.193,0.154,0.509,0.581,0.478v-1.195c0-5.433,0-10.863,0.001-16.295
		C17.848,1.062,17.801,0.509,18.069,0H25.081z"/> <path d="M72.852,0c0.03,0.436,0.086,0.872,0.086,1.308
		c0.005,10.263,0.005,20.525,0.003,30.787c0,1.501-0.006,1.503-1.515,1.507c-1.278,0.003-2.559-0.048-3.833,0.018
		c-0.856,0.044-1.311-0.307-1.722-1.027c-3.324-5.837-6.684-11.654-10.04-17.473c-0.154-0.268-0.218-0.621-0.587-0.757
		c-0.288,0.36-0.154,0.775-0.154,1.153c-0.011,5.515-0.005,11.029-0.009,16.543c-0.001,1.538-0.01,1.54-1.505,1.543
		c-1.497,0.002-2.997-0.051-4.491,0.019c-1.001,0.046-1.322-0.297-1.314-1.304c0.041-5.26,0.019-10.519,0.019-15.777
		c0-5.004-0.002-10.007,0.004-15.011c0-0.509,0.05-1.019,0.077-1.528h6.574c0.087,0.2,0.157,0.409,0.264,0.598
		c3.438,6.01,6.878,12.018,10.327,18.022c0.111,0.193,0.154,0.509,0.581,0.478v-1.195c0-5.433,0-10.863,0.001-16.295
		C65.619,1.062,65.572,0.509,65.84,0H72.852z"/> <path d="M101.777,0c0.43,1.949,0.187,3.921,0.157,5.881
		c-0.011,0.793-0.743,0.669-1.265,0.671c-3.177,0.014-6.352,0.008-9.527,0.008c-3.19,0-3.19,0-3.19,3.172
		c0,1.058,0.054,2.121-0.019,3.174c-0.056,0.822,0.202,1.07,1.032,1.059c3.284-0.044,6.569,0.025,9.854-0.042
		c1.115-0.023,1.505,0.34,1.44,1.433c-0.07,1.164-0.062,2.337-0.002,3.502c0.051,1.015-0.27,1.421-1.36,1.399
		c-3.247-0.063-6.497,0.003-9.745-0.039c-0.902-0.011-1.242,0.287-1.213,1.195c0.05,1.531,0.044,3.065,0.004,4.598
		c-0.022,0.863,0.332,1.144,1.17,1.139c3.979-0.027,7.957,0.017,11.936-0.03c1.04-0.012,1.45,0.312,1.395,1.372
		c-0.066,1.31-0.049,2.628-0.006,3.94c0.029,0.908-0.344,1.188-1.232,1.185c-6.425-0.028-12.849-0.035-19.271,0.005
		c-1.029,0.007-1.295-0.351-1.291-1.326c0.033-6.789,0.008-13.578,0.021-20.366C80.671,7.953,80.714,3.977,80.74,0H101.777z"/> <path d="M160.827,10.729c-0.454,3.881-2.714,6.75-5.252,9.489
		c-1.839,1.985-3.591,4.049-5.557,6.275c2.529,0,4.819-0.022,7.109,0.006c3.188,0.038,2.794-0.515,2.825,2.852
		c0.01,0.932-0.014,1.861-0.001,2.792c0.01,0.688-0.262,1.004-0.993,1.002c-6.44-0.016-12.88-0.015-19.319-0.001
		c-0.724,0.001-0.95-0.3-0.994-0.996c-0.109-1.762,0.198-3.231,1.478-4.674c3.953-4.45,7.724-9.062,11.553-13.622
		c0.477-0.567,0.915-1.174,1.309-1.802c0.766-1.222,1.011-2.545,0.131-3.774c-0.905-1.267-2.329-1.583-3.788-1.423
		c-1.985,0.217-3.249,1.426-3.781,3.313c-0.262,0.926-0.665,1.153-1.596,0.936c-1.409-0.329-2.851-0.529-4.286-0.735
		c-0.652-0.094-0.938-0.366-0.796-1.032c0.881-4.122,3.528-8.308,9.149-9.16c5.497-0.833,10.169,1.58,12.077,6.085
		c0.367,0.868,0.473,1.793,0.732,2.682V10.729z"/> <path d="M39.982,0c0.225,0.52,0.199,1.071,0.199,1.618
		c0,10.114,0.001,20.228-0.001,30.342c0,1.639-0.006,1.641-1.624,1.642c-1.497,0.001-2.996-0.042-4.491,0.016
		c-0.91,0.034-1.195-0.303-1.19-1.2c0.029-5.768,0.014-11.537,0.014-17.306c0-4.528-0.003-9.056,0.004-13.583
		c0-0.509,0.05-1.019,0.077-1.528H39.982z"/> <path d="M121.489,33.617c-4.989-0.156-9.059-1.986-11.4-6.637
		c-2.099-4.164-0.88-9.051,2.817-11.906c0.386-0.298,0.839-0.475,0.3-1.093c-2.829-3.236-2.339-8.393,1.523-11.603
		c5.012-4.166,13.139-2.668,15.957,2.989c1.467,2.943,1.313,5.827-0.753,8.487c-0.332,0.427-0.593,0.699,0.026,1.138
		c5.821,4.125,5.409,13.669-2.715,17.425C125.435,33.255,123.522,33.707,121.489,33.617 M121.522,17.677
		c-2.517-0.017-4.366,1.124-5.028,3.1c-0.889,2.657,0.614,5.232,3.528,6.046c2.836,0.791,5.962-0.854,6.569-3.457
		C127.324,20.217,125.082,17.701,121.522,17.677 M121.543,6.488c-1.911-0.013-3.225,1.099-3.264,2.765
		c-0.042,1.792,1.216,2.995,3.151,3.012c2.004,0.017,3.202-1.068,3.196-2.896C124.621,7.551,123.499,6.502,121.543,6.488"/> </g> </symbol><symbol viewBox="0 36.503 100 26.993" id="work-tfa"><title>work-tfa</title> <g> <path d="M13.008,55.184c0,0.905,0.015,1.859,0.946,2.008v0.147H10.46v-0.147c0.932-0.131,0.946-0.986,0.946-1.893v-6.633
		c0-0.904-0.014-1.859-0.946-2.007V46.51h3.494v0.149c-0.931,0.165-0.946,1.004-0.946,1.909V55.184"/> <path d="M33.621,55.227c0,0.982,0.013,1.918,0.803,1.949v0.146H31.46v-0.146c0.79-0.031,0.803-0.886,0.803-1.853v-7.765
		c-1.507,0-2.445,0.628-2.915,2.191l-0.111-0.048l0.605-3.191c0.161,0.274,0.494,0.21,0.729,0.21h4.742
		c0.235,0,0.568,0.064,0.729-0.21l0.604,3.191l-0.111,0.048c-0.47-1.562-1.407-2.191-2.915-2.191L33.621,55.227"/> <path d="M40.227,55.111c-0.104,0.379-0.209,0.774-0.209,1.171c0,0.528,0.34,0.856,0.72,0.891v0.147h-2.669v-0.147
		c0.314-0.083,0.484-0.182,0.68-0.526c0.235-0.43,0.445-1.057,0.589-1.535l2.106-7.007c0.092-0.313,0.197-0.627,0.197-0.956
		c0-0.297-0.183-0.479-0.406-0.528v-0.148h2.905v0.148c-0.235,0.083-0.38,0.264-0.38,0.594c0,0.199,0.065,0.462,0.118,0.644
		l2.237,8.113c0.196,0.594,0.275,1.039,0.799,1.204v0.148h-2.971v-0.148c0.471-0.132,0.641-0.577,0.641-1.153
		c0-1.502-1.491-3.48-3.599-3.529L40.227,55.111 M42.374,47.708l-1.191,3.958c0.969-0.018,1.963,0.43,2.644,1.318L42.374,47.708z"/> <path d="M53.154,57.507c-0.125-0.08-0.273-0.063-0.411-0.049l-1.513,0.097c-1.313,0-2.625-0.354-3.651-1.451
		c-1.075-1.145-1.613-2.821-1.613-4.596c0-1.404,0.388-2.822,1.238-3.741c0.9-0.952,1.988-1.242,3.114-1.242l1.374,0.145l0.4,0.048
		c0.201,0,0.4-0.096,0.488-0.338l0.574,3.047l-0.1,0.049c-0.464-1.403-1.601-2.113-2.738-2.113c-0.825,0-1.488,0.242-2.051,1.081
		c-0.538,0.806-0.8,1.886-0.8,2.951c0,2.808,1.475,5.322,3.763,5.322c1.326,0,2.227-1.017,2.764-2.516l0.125,0.064L53.154,57.507"/> <path d="M55.738,55.119c-0.104,0.378-0.209,0.771-0.209,1.167c0,0.526,0.34,0.854,0.717,0.887v0.147h-2.66v-0.147
		c0.313-0.081,0.482-0.18,0.68-0.524c0.234-0.428,0.442-1.053,0.586-1.528l2.101-6.982c0.092-0.312,0.196-0.624,0.196-0.953
		c0-0.295-0.184-0.476-0.404-0.525v-0.15h2.895v0.148c-0.234,0.082-0.377,0.263-0.377,0.591c0,0.197,0.064,0.46,0.116,0.641
		l2.229,8.083c0.195,0.592,0.273,1.035,0.797,1.199v0.148h-2.961v-0.148c0.47-0.131,0.639-0.574,0.639-1.148
		c0-1.496-1.486-3.467-3.586-3.518L55.738,55.119 M57.877,47.743l-1.188,3.942c0.965-0.016,1.957,0.429,2.636,1.315L57.877,47.743z"/> <path d="M10.253,51.451l-0.154,0.051c-0.445-1.765-2.188-3.813-4.9-3.813c-1.705,0-1.802,0.512-1.802,2.252v1.356h2.072
		c0.892,0,1.569-0.076,1.589-1.483l0.175-0.077l0.755,5.734l-0.156,0.051C7.096,52.577,6.089,52.5,3.998,52.5H3.397v7.525
		c0,1.461,0.02,2.943,1.279,3.123v0.205H0.008v-0.229c1.24-0.229,1.258-1.562,1.258-2.944V49.865c0-1.383-0.019-2.868-1.258-3.124
		V46.51h8.347c0.349,0,0.775,0.078,1.027-0.332L10.253,51.451"/> <path d="M19.833,46.51c1.465,0,1.952,0.56,1.952,1.679c0,1.35-1.084,2.156-1.952,2.715c1.044,1.416,1.803,3.16,2.373,4.904
		c0.204,0.576,0.366,1.252,0.949,1.383v0.147h-2.86v-0.147c0.298-0.065,0.501-0.23,0.501-0.643c0-0.626-0.475-1.761-0.732-2.304
		l-1.396-2.452l-0.136-0.214l-1.572,0.657v2.947c0,1.035,0.014,1.857,0.881,2.008v0.146h-3.254v-0.146
		c0.868-0.166,0.882-1.004,0.882-1.91v-6.616c0-0.905-0.014-1.859-0.882-2.007V46.51H19.833 M16.959,51.465
		c0.963-0.33,3.348-1.366,3.348-2.897c0-1.185-0.826-1.3-1.626-1.3c-0.393,0-1.315,0-1.559,0.362
		c-0.148,0.197-0.163,0.724-0.163,1.02V51.465z"/> <path d="M29.163,49.854l-0.106,0.033c-0.407-1.499-1.645-2.521-2.908-2.521c-0.645,0-1.658,0.363-1.658,1.368
		c0,0.79,0.882,1.038,1.355,1.219l1.843,0.691c0.591,0.23,1.223,0.494,1.683,1.037c0.5,0.594,0.711,1.334,0.711,2.19
		c0,2.405-1.881,3.903-3.724,3.903c-0.922,0-1.764-0.526-2.382-0.526c-0.197,0-0.329,0.132-0.447,0.296l-0.763-4.117l0.119-0.049
		c0.473,1.928,1.697,3.441,3.381,3.441c1.409,0,2.5-1.021,2.5-2.272c0-1.433-1.039-1.812-1.934-2.157l-1.75-0.676
		c-1.026-0.396-1.908-0.988-1.908-2.503c0-1.976,1.697-2.701,3.013-2.701c0.96,0,1.407,0.363,1.973,0.363
		c0.224,0,0.343-0.099,0.474-0.296L29.163,49.854"/> <path d="M65.716,46.51c1.377,0,2.583,0.262,3.671,1.406c1.01,1.062,1.627,2.68,1.627,4.329c0,1.454-0.474,2.957-1.392,3.905
		c-1.035,1.076-2.136,1.109-3.422,1.109h-3.604v-0.146c0.84-0.163,0.854-0.996,0.854-1.879v-6.583c0-0.898-0.014-1.846-0.854-1.993
		V46.51H65.716 M64.891,54.4c0,1.438-0.027,2.107,1.351,2.107c2.071,0,3.198-1.601,3.198-4.148c0-2.712-1.285-5.097-3.565-5.097
		c-1.049,0-0.981,0.654-0.981,1.715V54.4H64.891z"/> <path d="M77.795,49.615l-0.105,0.049c-0.56-1.66-1.982-2.399-3.354-2.399c-0.918,0-1.225,0.181-1.225,1.38v0.937h1.023
		c0.627,0,1.504,0.099,1.479-0.986l0.119-0.05l0.52,3.681l-0.105,0.049c-0.467-1.922-1.305-1.922-2.715-1.922h-0.318v4.404
		c0,1.28,0.025,1.808,1.371,1.808c1.9,0,3.164-1.103,3.99-3.172l0.133,0.049l-1.131,4.093c-0.134-0.229-0.373-0.214-0.586-0.214
		h-6.105v-0.148c0.852-0.164,0.863-1.002,0.863-1.889v-6.622c0-0.888-0.012-1.84-0.863-2.005v-0.147h5.693
		c0.252,0,0.52,0.033,0.719-0.197L77.795,49.615"/> <path d="M79.966,47.645v7.523c0,0.938,0.013,1.906,0.837,2.004v0.148h-2.512v-0.148c0.824-0.146,0.837-0.984,0.837-1.889v-6.621
		c0-0.903-0.013-1.856-0.837-2.004V46.51h3.259v0.148c-0.309,0.098-0.257,0.443-0.052,0.937l1.482,3.45l1.469-3.04
		c0.322-0.674,0.516-1.215,0.09-1.347V46.51h3.104v0.148c-0.822,0.165-0.836,1.002-0.836,1.889v6.62c0,0.903,0.014,1.84,0.836,2.004
		v0.147h-3.092v-0.147c0.825-0.114,0.838-0.969,0.838-1.889v-7.639l-2.82,5.832L79.966,47.645"/> <path d="M94.848,60.003c0,1.536,0.021,3.048,1.248,3.125v0.229h-4.604v-0.229c1.229-0.18,1.247-1.512,1.247-2.946V55.57
		l-3.07-6.455c-0.461-0.948-0.938-2.28-1.88-2.382v-0.231h4.95v0.231c-1.632,0.128-0.769,2.177-0.173,3.432l1.783,3.817l1.766-3.868
		c0.845-1.871,1.4-3.253,0.02-3.381v-0.231h3.723v0.231c-0.979,0.153-1.42,1.229-1.918,2.203l-3.09,6.634v4.433"/> <rect x="8.477" y="60.48" width="79.361" height="3.016"/> <rect y="43.832" width="39.937" height="0.639"/> <rect x="59.672" y="43.832" width="40.328" height="0.639"/> <path d="M43.224,42.837c0,0.713,0.009,1.393,0.573,1.416v0.105h-2.116v-0.105c0.564-0.023,0.574-0.644,0.574-1.346v-5.64
		c-1.076,0-1.747,0.457-2.082,1.592l-0.08-0.035l0.433-2.317c0.114,0.199,0.352,0.153,0.52,0.153h3.385
		c0.167,0,0.405,0.046,0.52-0.153l0.433,2.317l-0.079,0.035c-0.336-1.135-1.006-1.592-2.082-1.592L43.224,42.837"/> <path d="M47.604,42.825c0,0.667,0.011,1.358,0.63,1.429v0.105h-2.321v-0.105c0.619-0.105,0.628-0.714,0.628-1.347v-4.721
		c0-0.644-0.009-1.323-0.628-1.429V36.65h2.321v0.106c-0.62,0.082-0.63,0.69-0.63,1.346v0.692h2.882v-0.609
		c-0.01-0.679,0-1.37-0.628-1.429V36.65h2.322v0.106c-0.619,0.094-0.619,0.703-0.631,1.346v4.723
		c0.012,0.656,0.012,1.335,0.631,1.429v0.105h-2.322v-0.105c0.618-0.059,0.618-0.679,0.628-1.347v-3.55h-2.882V42.825"/> <path d="M57.605,38.86l-0.067,0.035c-0.351-1.184-1.247-1.711-2.108-1.711c-0.578,0-0.771,0.129-0.771,0.985v0.668h0.645
		c0.395,0,0.946,0.07,0.93-0.704l0.076-0.035l0.326,2.626l-0.066,0.035c-0.293-1.372-0.82-1.372-1.707-1.372h-0.202v3.142
		c0,0.915,0.017,1.289,0.862,1.289c1.196,0,1.992-0.785,2.512-2.263l0.083,0.036l-0.71,2.918c-0.084-0.164-0.235-0.152-0.369-0.152
		h-3.844v-0.105c0.537-0.118,0.545-0.715,0.545-1.348v-4.725c0-0.633-0.008-1.313-0.545-1.43v-0.105h3.584
		c0.158,0,0.326,0.024,0.451-0.141L57.605,38.86"/> </g> </symbol><symbol viewBox="0 0 160.827 33.628" id="work-tkm"><title>work-tkm</title> <g> <path d="M25.081,0c0.03,0.436,0.086,0.872,0.086,1.308
		c0.005,10.263,0.005,20.525,0.003,30.787c0,1.501-0.006,1.503-1.515,1.507c-1.278,0.003-2.559-0.048-3.833,0.018
		c-0.856,0.044-1.311-0.307-1.722-1.027c-3.324-5.837-6.684-11.654-10.04-17.473c-0.154-0.268-0.218-0.622-0.587-0.757
		c-0.288,0.36-0.154,0.775-0.154,1.153C7.308,21.03,7.314,26.544,7.31,32.059c-0.001,1.538-0.01,1.54-1.505,1.543
		c-1.497,0.002-2.997-0.051-4.491,0.019C0.313,33.666-0.008,33.323,0,32.316c0.041-5.26,0.019-10.519,0.019-15.777
		c0-5.004-0.002-10.007,0.004-15.011C0.023,1.019,0.073,0.509,0.1,0h6.574c0.087,0.2,0.157,0.409,0.264,0.598
		c3.438,6.01,6.878,12.018,10.327,18.022c0.111,0.193,0.154,0.509,0.581,0.478v-1.195c0-5.433,0-10.863,0.001-16.295
		C17.848,1.062,17.801,0.509,18.069,0H25.081z"/> <path d="M72.852,0c0.03,0.436,0.086,0.872,0.086,1.308
		c0.005,10.263,0.005,20.525,0.003,30.787c0,1.501-0.006,1.503-1.515,1.507c-1.278,0.003-2.559-0.048-3.833,0.018
		c-0.856,0.044-1.311-0.307-1.722-1.027c-3.324-5.837-6.684-11.654-10.04-17.473c-0.154-0.268-0.218-0.621-0.587-0.757
		c-0.288,0.36-0.154,0.775-0.154,1.153c-0.011,5.515-0.005,11.029-0.009,16.543c-0.001,1.538-0.01,1.54-1.505,1.543
		c-1.497,0.002-2.997-0.051-4.491,0.019c-1.001,0.046-1.322-0.297-1.314-1.304c0.041-5.26,0.019-10.519,0.019-15.777
		c0-5.004-0.002-10.007,0.004-15.011c0-0.509,0.05-1.019,0.077-1.528h6.574c0.087,0.2,0.157,0.409,0.264,0.598
		c3.438,6.01,6.878,12.018,10.327,18.022c0.111,0.193,0.154,0.509,0.581,0.478v-1.195c0-5.433,0-10.863,0.001-16.295
		C65.619,1.062,65.572,0.509,65.84,0H72.852z"/> <path d="M101.777,0c0.43,1.949,0.187,3.921,0.157,5.881
		c-0.011,0.793-0.743,0.669-1.265,0.671c-3.177,0.014-6.352,0.008-9.527,0.008c-3.19,0-3.19,0-3.19,3.172
		c0,1.058,0.054,2.121-0.019,3.174c-0.056,0.822,0.202,1.07,1.032,1.059c3.284-0.044,6.569,0.025,9.854-0.042
		c1.115-0.023,1.505,0.34,1.44,1.433c-0.07,1.164-0.062,2.337-0.002,3.502c0.051,1.015-0.27,1.421-1.36,1.399
		c-3.247-0.063-6.497,0.003-9.745-0.039c-0.902-0.011-1.242,0.287-1.213,1.195c0.05,1.531,0.044,3.065,0.004,4.598
		c-0.022,0.863,0.332,1.144,1.17,1.139c3.979-0.027,7.957,0.017,11.936-0.03c1.04-0.012,1.45,0.312,1.395,1.372
		c-0.066,1.31-0.049,2.628-0.006,3.94c0.029,0.908-0.344,1.188-1.232,1.185c-6.425-0.028-12.849-0.035-19.271,0.005
		c-1.029,0.007-1.295-0.351-1.291-1.326c0.033-6.789,0.008-13.578,0.021-20.366C80.671,7.953,80.714,3.977,80.74,0H101.777z"/> <path d="M160.827,10.729c-0.454,3.881-2.714,6.75-5.252,9.489
		c-1.839,1.985-3.591,4.049-5.557,6.275c2.529,0,4.819-0.022,7.109,0.006c3.188,0.038,2.794-0.515,2.825,2.852
		c0.01,0.932-0.014,1.861-0.001,2.792c0.01,0.688-0.262,1.004-0.993,1.002c-6.44-0.016-12.88-0.015-19.319-0.001
		c-0.724,0.001-0.95-0.3-0.994-0.996c-0.109-1.762,0.198-3.231,1.478-4.674c3.953-4.45,7.724-9.062,11.553-13.622
		c0.477-0.567,0.915-1.174,1.309-1.802c0.766-1.222,1.011-2.545,0.131-3.774c-0.905-1.267-2.329-1.583-3.788-1.423
		c-1.985,0.217-3.249,1.426-3.781,3.313c-0.262,0.926-0.665,1.153-1.596,0.936c-1.409-0.329-2.851-0.529-4.286-0.735
		c-0.652-0.094-0.938-0.366-0.796-1.032c0.881-4.122,3.528-8.308,9.149-9.16c5.497-0.833,10.169,1.58,12.077,6.085
		c0.367,0.868,0.473,1.793,0.732,2.682V10.729z"/> <path d="M39.982,0c0.225,0.52,0.199,1.071,0.199,1.618
		c0,10.114,0.001,20.228-0.001,30.342c0,1.639-0.006,1.641-1.624,1.642c-1.497,0.001-2.996-0.042-4.491,0.016
		c-0.91,0.034-1.195-0.303-1.19-1.2c0.029-5.768,0.014-11.537,0.014-17.306c0-4.528-0.003-9.056,0.004-13.583
		c0-0.509,0.05-1.019,0.077-1.528H39.982z"/> <path d="M121.489,33.617c-4.989-0.156-9.059-1.986-11.4-6.637
		c-2.099-4.164-0.88-9.051,2.817-11.906c0.386-0.298,0.839-0.475,0.3-1.093c-2.829-3.236-2.339-8.393,1.523-11.603
		c5.012-4.166,13.139-2.668,15.957,2.989c1.467,2.943,1.313,5.827-0.753,8.487c-0.332,0.427-0.593,0.699,0.026,1.138
		c5.821,4.125,5.409,13.669-2.715,17.425C125.435,33.255,123.522,33.707,121.489,33.617 M121.522,17.677
		c-2.517-0.017-4.366,1.124-5.028,3.1c-0.889,2.657,0.614,5.232,3.528,6.046c2.836,0.791,5.962-0.854,6.569-3.457
		C127.324,20.217,125.082,17.701,121.522,17.677 M121.543,6.488c-1.911-0.013-3.225,1.099-3.264,2.765
		c-0.042,1.792,1.216,2.995,3.151,3.012c2.004,0.017,3.202-1.068,3.196-2.896C124.621,7.551,123.499,6.502,121.543,6.488"/> </g> </symbol><symbol viewBox="0 0 23.918 22.164" id="work-view"><title>work-view</title> <path d="M18.324,16.677c-0.256,0-0.512-0.098-0.707-0.293
		c-0.391-0.39-0.391-1.022,0-1.414l3.887-3.889L17.617,7.19c-0.391-0.391-0.391-1.024,0-1.415c0.391-0.39,1.023-0.39,1.414,0.001
		l4.594,4.598c0.391,0.391,0.391,1.024,0,1.414l-4.594,4.596C18.836,16.579,18.58,16.677,18.324,16.677"/> <path d="M5.594,16.677c-0.256,0-0.512-0.098-0.707-0.293l-4.594-4.596
		c-0.39-0.39-0.39-1.023,0-1.414l4.594-4.598C5.278,5.385,5.91,5.385,6.301,5.775c0.391,0.391,0.391,1.024,0,1.415l-3.887,3.891
		l3.887,3.889c0.391,0.392,0.391,1.024,0,1.414C6.105,16.579,5.85,16.677,5.594,16.677"/> <path d="M8.213,22.164c-0.117,0-0.234-0.021-0.35-0.063
		c-0.517-0.191-0.781-0.768-0.587-1.285L14.77,0.652c0.191-0.518,0.766-0.782,1.285-0.589c0.518,0.192,0.781,0.768,0.59,1.286
		L9.15,21.512C9,21.915,8.619,22.164,8.213,22.164"/> </symbol><symbol viewBox="0 0 160.827 33.628" id="work-wdx"><title>work-wdx</title> <g> <path d="M25.081,0c0.03,0.436,0.086,0.872,0.086,1.308
		c0.005,10.263,0.005,20.525,0.003,30.787c0,1.501-0.006,1.503-1.515,1.507c-1.278,0.003-2.559-0.048-3.833,0.018
		c-0.856,0.044-1.311-0.307-1.722-1.027c-3.324-5.837-6.684-11.654-10.04-17.473c-0.154-0.268-0.218-0.622-0.587-0.757
		c-0.288,0.36-0.154,0.775-0.154,1.153C7.308,21.03,7.314,26.544,7.31,32.059c-0.001,1.538-0.01,1.54-1.505,1.543
		c-1.497,0.002-2.997-0.051-4.491,0.019C0.313,33.666-0.008,33.323,0,32.316c0.041-5.26,0.019-10.519,0.019-15.777
		c0-5.004-0.002-10.007,0.004-15.011C0.023,1.019,0.073,0.509,0.1,0h6.574c0.087,0.2,0.157,0.409,0.264,0.598
		c3.438,6.01,6.878,12.018,10.327,18.022c0.111,0.193,0.154,0.509,0.581,0.478v-1.195c0-5.433,0-10.863,0.001-16.295
		C17.848,1.062,17.801,0.509,18.069,0H25.081z"/> <path d="M72.852,0c0.03,0.436,0.086,0.872,0.086,1.308
		c0.005,10.263,0.005,20.525,0.003,30.787c0,1.501-0.006,1.503-1.515,1.507c-1.278,0.003-2.559-0.048-3.833,0.018
		c-0.856,0.044-1.311-0.307-1.722-1.027c-3.324-5.837-6.684-11.654-10.04-17.473c-0.154-0.268-0.218-0.621-0.587-0.757
		c-0.288,0.36-0.154,0.775-0.154,1.153c-0.011,5.515-0.005,11.029-0.009,16.543c-0.001,1.538-0.01,1.54-1.505,1.543
		c-1.497,0.002-2.997-0.051-4.491,0.019c-1.001,0.046-1.322-0.297-1.314-1.304c0.041-5.26,0.019-10.519,0.019-15.777
		c0-5.004-0.002-10.007,0.004-15.011c0-0.509,0.05-1.019,0.077-1.528h6.574c0.087,0.2,0.157,0.409,0.264,0.598
		c3.438,6.01,6.878,12.018,10.327,18.022c0.111,0.193,0.154,0.509,0.581,0.478v-1.195c0-5.433,0-10.863,0.001-16.295
		C65.619,1.062,65.572,0.509,65.84,0H72.852z"/> <path d="M101.777,0c0.43,1.949,0.187,3.921,0.157,5.881
		c-0.011,0.793-0.743,0.669-1.265,0.671c-3.177,0.014-6.352,0.008-9.527,0.008c-3.19,0-3.19,0-3.19,3.172
		c0,1.058,0.054,2.121-0.019,3.174c-0.056,0.822,0.202,1.07,1.032,1.059c3.284-0.044,6.569,0.025,9.854-0.042
		c1.115-0.023,1.505,0.34,1.44,1.433c-0.07,1.164-0.062,2.337-0.002,3.502c0.051,1.015-0.27,1.421-1.36,1.399
		c-3.247-0.063-6.497,0.003-9.745-0.039c-0.902-0.011-1.242,0.287-1.213,1.195c0.05,1.531,0.044,3.065,0.004,4.598
		c-0.022,0.863,0.332,1.144,1.17,1.139c3.979-0.027,7.957,0.017,11.936-0.03c1.04-0.012,1.45,0.312,1.395,1.372
		c-0.066,1.31-0.049,2.628-0.006,3.94c0.029,0.908-0.344,1.188-1.232,1.185c-6.425-0.028-12.849-0.035-19.271,0.005
		c-1.029,0.007-1.295-0.351-1.291-1.326c0.033-6.789,0.008-13.578,0.021-20.366C80.671,7.953,80.714,3.977,80.74,0H101.777z"/> <path d="M160.827,10.729c-0.454,3.881-2.714,6.75-5.252,9.489
		c-1.839,1.985-3.591,4.049-5.557,6.275c2.529,0,4.819-0.022,7.109,0.006c3.188,0.038,2.794-0.515,2.825,2.852
		c0.01,0.932-0.014,1.861-0.001,2.792c0.01,0.688-0.262,1.004-0.993,1.002c-6.44-0.016-12.88-0.015-19.319-0.001
		c-0.724,0.001-0.95-0.3-0.994-0.996c-0.109-1.762,0.198-3.231,1.478-4.674c3.953-4.45,7.724-9.062,11.553-13.622
		c0.477-0.567,0.915-1.174,1.309-1.802c0.766-1.222,1.011-2.545,0.131-3.774c-0.905-1.267-2.329-1.583-3.788-1.423
		c-1.985,0.217-3.249,1.426-3.781,3.313c-0.262,0.926-0.665,1.153-1.596,0.936c-1.409-0.329-2.851-0.529-4.286-0.735
		c-0.652-0.094-0.938-0.366-0.796-1.032c0.881-4.122,3.528-8.308,9.149-9.16c5.497-0.833,10.169,1.58,12.077,6.085
		c0.367,0.868,0.473,1.793,0.732,2.682V10.729z"/> <path d="M39.982,0c0.225,0.52,0.199,1.071,0.199,1.618
		c0,10.114,0.001,20.228-0.001,30.342c0,1.639-0.006,1.641-1.624,1.642c-1.497,0.001-2.996-0.042-4.491,0.016
		c-0.91,0.034-1.195-0.303-1.19-1.2c0.029-5.768,0.014-11.537,0.014-17.306c0-4.528-0.003-9.056,0.004-13.583
		c0-0.509,0.05-1.019,0.077-1.528H39.982z"/> <path d="M121.489,33.617c-4.989-0.156-9.059-1.986-11.4-6.637
		c-2.099-4.164-0.88-9.051,2.817-11.906c0.386-0.298,0.839-0.475,0.3-1.093c-2.829-3.236-2.339-8.393,1.523-11.603
		c5.012-4.166,13.139-2.668,15.957,2.989c1.467,2.943,1.313,5.827-0.753,8.487c-0.332,0.427-0.593,0.699,0.026,1.138
		c5.821,4.125,5.409,13.669-2.715,17.425C125.435,33.255,123.522,33.707,121.489,33.617 M121.522,17.677
		c-2.517-0.017-4.366,1.124-5.028,3.1c-0.889,2.657,0.614,5.232,3.528,6.046c2.836,0.791,5.962-0.854,6.569-3.457
		C127.324,20.217,125.082,17.701,121.522,17.677 M121.543,6.488c-1.911-0.013-3.225,1.099-3.264,2.765
		c-0.042,1.792,1.216,2.995,3.151,3.012c2.004,0.017,3.202-1.068,3.196-2.896C124.621,7.551,123.499,6.502,121.543,6.488"/> </g> </symbol></svg>