<?xml version="1.0" encoding="utf-8"?>
<!-- Generator: Adobe Illustrator 15.0.0, SVG Export Plug-In . SVG Version: 6.00 Build 0)  -->
<!DOCTYPE svg PUBLIC "-//W3C//DTD SVG 1.1//EN" "http://www.w3.org/Graphics/SVG/1.1/DTD/svg11.dtd">
<svg version="1.1" id="Layer_1" xmlns="http://www.w3.org/2000/svg" xmlns:xlink="http://www.w3.org/1999/xlink" x="0px" y="0px"
	 width="34.178px" height="42px"  xml:space="preserve">
<g>
	<path d="M21.128,41.067c-0.515,0-0.933-0.417-0.933-0.933V28.949c0-0.514,0.418-0.933,0.933-0.933h11.187
		c0.514,0,0.934,0.419,0.934,0.933c0,0.517-0.42,0.934-0.934,0.934H22.061v10.254C22.061,40.652,21.642,41.067,21.128,41.067"/>
	<path d="M21.128,42H1.865C0.833,42,0,41.168,0,40.137V28.949c0-1.029,0.833-1.863,1.864-1.863s1.864,0.834,1.864,1.863v9.322
		h16.627l10.094-10.093V3.729H1.865C0.833,3.729,0,2.895,0,1.863S0.833,0,1.865,0h30.449c1.03,0,1.864,0.832,1.864,1.863v27.085
		c0,0.497-0.196,0.972-0.546,1.318L22.446,41.454C22.097,41.807,21.623,42,21.128,42"/>
	<path d="M8.652,10.925v2.208c0,2.714-1.309,4.192-3.976,4.192h-1.26V23.7H0.748V6.731h3.928C7.343,6.731,8.652,8.21,8.652,10.925
		 M3.417,9.158v5.744h1.26c0.849,0,1.309-0.388,1.309-1.6v-2.547c0-1.211-0.46-1.598-1.309-1.598H3.417z"/>
	<path d="M9.888,6.731h4.217c2.666,0,3.976,1.479,3.976,4.193v8.583c0,2.715-1.31,4.192-3.976,4.192H9.888V6.731z M12.554,9.158
		v12.119h1.505c0.848,0,1.357-0.437,1.357-1.65v-8.82c0-1.214-0.51-1.647-1.357-1.647L12.554,9.158L12.554,9.158z"/>
	<polygon points="22.443,14.27 25.884,14.27 25.884,16.696 22.443,16.696 22.443,23.7 19.774,23.7 19.774,6.731 26.831,6.731 
		26.831,9.158 22.443,9.158 	"/>
</g>
</svg>
