<svg version="1.1" id="Layer_1" xmlns="http://www.w3.org/2000/svg" xmlns:xlink="http://www.w3.org/1999/xlink" x="0px" y="0px"
	 width="48.511px" height="42px" viewBox="-11.246 -9.736 48.511 42" enable-background="new -11.246 -9.736 48.511 42"
	 xml:space="preserve">
<g>
	<path d="M-10.314,32.264c-0.512,0-0.932-0.419-0.932-0.933V15.712c0-0.512,0.28-1.244,0.623-1.626l4.845-5.384
		c0.343-0.381,1.043-0.694,1.555-0.694h2.598c0.513,0,0.932,0.42,0.932,0.932v1.495c0,0.514-0.419,0.933-0.932,0.933h-1.076
		c-0.512,0-1.21,0.311-1.555,0.694l-2.953,3.286c-0.344,0.382-0.625,1.11-0.625,1.626v10.995c0,0.514,0.42,0.932,0.932,0.932h39.873
		c0.514,0,0.933-0.418,0.933-0.932V16.974c0-0.514-0.278-1.244-0.623-1.626l-2.957-3.286c-0.342-0.381-1.041-0.694-1.555-0.694
		h-1.072c-0.514,0-0.932-0.419-0.932-0.933V8.941c0-0.512,0.418-0.932,0.932-0.932h2.599c0.513,0,1.21,0.313,1.553,0.695l4.796,5.38
		c0.342,0.382,0.621,1.116,0.621,1.628v15.619c0,0.514-0.421,0.933-0.933,0.933H-10.314z M0.239,15.515
		c-0.513,0-0.932-0.42-0.932-0.932v-15.46c0-0.513,0.297-1.229,0.661-1.593l6.609-6.609c0.36-0.36,1.078-0.657,1.589-0.657h17.667
		c0.512,0,0.933,0.419,0.933,0.932v23.387c0,0.512-0.421,0.932-0.933,0.932H0.239z M2.459,11.382c0,0.512,0.418,0.933,0.932,0.933
		h19.292c0.513,0,0.932-0.421,0.932-0.933V-5.656c0-0.512-0.419-0.932-0.932-0.932H11.318c-0.514,0-0.932,0.42-0.932,0.932v6.063
		c0,0.514-0.421,0.932-0.932,0.932H3.391c-0.514,0-0.932,0.421-0.932,0.932V11.382z"/>
</g>
</svg>
