<svg version="1.1" id="Layer_1" xmlns="http://www.w3.org/2000/svg" xmlns:xlink="http://www.w3.org/1999/xlink" x="0px" y="0px"
	 width="34.178px" height="42px" viewBox="-7.923 -9.736 34.178 42" enable-background="new -7.923 -9.736 34.178 42"
	 xml:space="preserve">
<g>
	<path d="M13.204,31.331c-0.514,0-0.932-0.417-0.932-0.932V19.213c0-0.514,0.418-0.933,0.932-0.933h11.187
		c0.514,0,0.933,0.419,0.933,0.933c0,0.516-0.419,0.933-0.933,0.933H14.137V30.4C14.137,30.916,13.718,31.331,13.204,31.331"/>
	<path d="M13.204,32.264H-6.059c-1.032,0-1.865-0.832-1.865-1.864V19.213c0-1.03,0.833-1.864,1.865-1.864
		c1.031,0,1.864,0.834,1.864,1.864v9.322h16.627l10.094-10.093v-24.45H-6.059c-1.032,0-1.865-0.834-1.865-1.865
		c0-1.032,0.833-1.864,1.865-1.864h30.449c1.03,0,1.864,0.832,1.864,1.864v27.085c0,0.497-0.196,0.971-0.546,1.318L14.522,31.718
		C14.173,32.07,13.699,32.264,13.204,32.264"/>
	<path d="M0.728,1.188v2.208c0,2.714-1.309,4.193-3.976,4.193h-1.26v6.375h-2.668V-3.005h3.928
		C-0.581-3.005,0.728-1.527,0.728,1.188 M-4.507-0.578v5.744h1.26c0.849,0,1.309-0.388,1.309-1.6V1.019
		c0-1.211-0.46-1.597-1.309-1.597H-4.507z"/>
	<path d="M1.964-3.005h4.217c2.666,0,3.975,1.479,3.975,4.193v8.583c0,2.715-1.309,4.193-3.975,4.193H1.964V-3.005z M4.63-0.578
		v12.119h1.505c0.848,0,1.357-0.437,1.357-1.651V1.07c0-1.214-0.509-1.647-1.357-1.647H4.63z"/>
	<polygon points="14.519,4.533 17.96,4.533 17.96,6.96 14.519,6.96 14.519,13.964 11.85,13.964 11.85,-3.005 18.907,-3.005 
		18.907,-0.578 14.519,-0.578 	"/>
</g>
</svg>
