<svg version="1.1" id="Layer_1" xmlns="http://www.w3.org/2000/svg" xmlns:xlink="http://www.w3.org/1999/xlink" x="0px" y="0px"
	 width="23.918px" height="22.164px" viewBox="0 0 23.918 22.164" enable-background="new 0 0 23.918 22.164" xml:space="preserve">
	<path d="M18.324,16.677c-0.256,0-0.512-0.098-0.707-0.293
		c-0.391-0.39-0.391-1.022,0-1.414l3.887-3.889L17.617,7.19c-0.391-0.391-0.391-1.024,0-1.415c0.391-0.39,1.023-0.39,1.414,0.001
		l4.594,4.598c0.391,0.391,0.391,1.024,0,1.414l-4.594,4.596C18.836,16.579,18.58,16.677,18.324,16.677"/>
	<path d="M5.594,16.677c-0.256,0-0.512-0.098-0.707-0.293l-4.594-4.596
		c-0.39-0.39-0.39-1.023,0-1.414l4.594-4.598C5.278,5.385,5.91,5.385,6.301,5.775c0.391,0.391,0.391,1.024,0,1.415l-3.887,3.891
		l3.887,3.889c0.391,0.392,0.391,1.024,0,1.414C6.105,16.579,5.85,16.677,5.594,16.677"/>
	<path d="M8.213,22.164c-0.117,0-0.234-0.021-0.35-0.063
		c-0.517-0.191-0.781-0.768-0.587-1.285L14.77,0.652c0.191-0.518,0.766-0.782,1.285-0.589c0.518,0.192,0.781,0.768,0.59,1.286
		L9.15,21.512C9,21.915,8.619,22.164,8.213,22.164"/>
</svg>