<svg version="1.1" id="Layer_1" xmlns="http://www.w3.org/2000/svg" xmlns:xlink="http://www.w3.org/1999/xlink" x="0px" y="0px"
	 width="160.827px" height="33.628px" viewBox="0 0 160.827 33.628" enable-background="new 0 0 160.827 33.628"
	 xml:space="preserve">
<g>
	<path fill="#FFFFFF" d="M25.081,0c0.03,0.436,0.086,0.872,0.086,1.308
		c0.005,10.263,0.005,20.525,0.003,30.787c0,1.501-0.006,1.503-1.515,1.507c-1.278,0.003-2.559-0.048-3.833,0.018
		c-0.856,0.044-1.311-0.307-1.722-1.027c-3.324-5.837-6.684-11.654-10.04-17.473c-0.154-0.268-0.218-0.622-0.587-0.757
		c-0.288,0.36-0.154,0.775-0.154,1.153C7.308,21.03,7.314,26.544,7.31,32.059c-0.001,1.538-0.01,1.54-1.505,1.543
		c-1.497,0.002-2.997-0.051-4.491,0.019C0.313,33.666-0.008,33.323,0,32.316c0.041-5.26,0.019-10.519,0.019-15.777
		c0-5.004-0.002-10.007,0.004-15.011C0.023,1.019,0.073,0.509,0.1,0h6.574c0.087,0.2,0.157,0.409,0.264,0.598
		c3.438,6.01,6.878,12.018,10.327,18.022c0.111,0.193,0.154,0.509,0.581,0.478v-1.195c0-5.433,0-10.863,0.001-16.295
		C17.848,1.062,17.801,0.509,18.069,0H25.081z"/>
	<path fill="#FFFFFF" d="M72.852,0c0.03,0.436,0.086,0.872,0.086,1.308
		c0.005,10.263,0.005,20.525,0.003,30.787c0,1.501-0.006,1.503-1.515,1.507c-1.278,0.003-2.559-0.048-3.833,0.018
		c-0.856,0.044-1.311-0.307-1.722-1.027c-3.324-5.837-6.684-11.654-10.04-17.473c-0.154-0.268-0.218-0.621-0.587-0.757
		c-0.288,0.36-0.154,0.775-0.154,1.153c-0.011,5.515-0.005,11.029-0.009,16.543c-0.001,1.538-0.01,1.54-1.505,1.543
		c-1.497,0.002-2.997-0.051-4.491,0.019c-1.001,0.046-1.322-0.297-1.314-1.304c0.041-5.26,0.019-10.519,0.019-15.777
		c0-5.004-0.002-10.007,0.004-15.011c0-0.509,0.05-1.019,0.077-1.528h6.574c0.087,0.2,0.157,0.409,0.264,0.598
		c3.438,6.01,6.878,12.018,10.327,18.022c0.111,0.193,0.154,0.509,0.581,0.478v-1.195c0-5.433,0-10.863,0.001-16.295
		C65.619,1.062,65.572,0.509,65.84,0H72.852z"/>
	<path fill="#FFFFFF" d="M101.777,0c0.43,1.949,0.187,3.921,0.157,5.881
		c-0.011,0.793-0.743,0.669-1.265,0.671c-3.177,0.014-6.352,0.008-9.527,0.008c-3.19,0-3.19,0-3.19,3.172
		c0,1.058,0.054,2.121-0.019,3.174c-0.056,0.822,0.202,1.07,1.032,1.059c3.284-0.044,6.569,0.025,9.854-0.042
		c1.115-0.023,1.505,0.34,1.44,1.433c-0.07,1.164-0.062,2.337-0.002,3.502c0.051,1.015-0.27,1.421-1.36,1.399
		c-3.247-0.063-6.497,0.003-9.745-0.039c-0.902-0.011-1.242,0.287-1.213,1.195c0.05,1.531,0.044,3.065,0.004,4.598
		c-0.022,0.863,0.332,1.144,1.17,1.139c3.979-0.027,7.957,0.017,11.936-0.03c1.04-0.012,1.45,0.312,1.395,1.372
		c-0.066,1.31-0.049,2.628-0.006,3.94c0.029,0.908-0.344,1.188-1.232,1.185c-6.425-0.028-12.849-0.035-19.271,0.005
		c-1.029,0.007-1.295-0.351-1.291-1.326c0.033-6.789,0.008-13.578,0.021-20.366C80.671,7.953,80.714,3.977,80.74,0H101.777z"/>
	<path fill="#FFFFFF" d="M160.827,10.729c-0.454,3.881-2.714,6.75-5.252,9.489
		c-1.839,1.985-3.591,4.049-5.557,6.275c2.529,0,4.819-0.022,7.109,0.006c3.188,0.038,2.794-0.515,2.825,2.852
		c0.01,0.932-0.014,1.861-0.001,2.792c0.01,0.688-0.262,1.004-0.993,1.002c-6.44-0.016-12.88-0.015-19.319-0.001
		c-0.724,0.001-0.95-0.3-0.994-0.996c-0.109-1.762,0.198-3.231,1.478-4.674c3.953-4.45,7.724-9.062,11.553-13.622
		c0.477-0.567,0.915-1.174,1.309-1.802c0.766-1.222,1.011-2.545,0.131-3.774c-0.905-1.267-2.329-1.583-3.788-1.423
		c-1.985,0.217-3.249,1.426-3.781,3.313c-0.262,0.926-0.665,1.153-1.596,0.936c-1.409-0.329-2.851-0.529-4.286-0.735
		c-0.652-0.094-0.938-0.366-0.796-1.032c0.881-4.122,3.528-8.308,9.149-9.16c5.497-0.833,10.169,1.58,12.077,6.085
		c0.367,0.868,0.473,1.793,0.732,2.682V10.729z"/>
	<path fill="#FFFFFF" d="M39.982,0c0.225,0.52,0.199,1.071,0.199,1.618
		c0,10.114,0.001,20.228-0.001,30.342c0,1.639-0.006,1.641-1.624,1.642c-1.497,0.001-2.996-0.042-4.491,0.016
		c-0.91,0.034-1.195-0.303-1.19-1.2c0.029-5.768,0.014-11.537,0.014-17.306c0-4.528-0.003-9.056,0.004-13.583
		c0-0.509,0.05-1.019,0.077-1.528H39.982z"/>
	<path fill="#FFFFFF" d="M121.489,33.617c-4.989-0.156-9.059-1.986-11.4-6.637
		c-2.099-4.164-0.88-9.051,2.817-11.906c0.386-0.298,0.839-0.475,0.3-1.093c-2.829-3.236-2.339-8.393,1.523-11.603
		c5.012-4.166,13.139-2.668,15.957,2.989c1.467,2.943,1.313,5.827-0.753,8.487c-0.332,0.427-0.593,0.699,0.026,1.138
		c5.821,4.125,5.409,13.669-2.715,17.425C125.435,33.255,123.522,33.707,121.489,33.617 M121.522,17.677
		c-2.517-0.017-4.366,1.124-5.028,3.1c-0.889,2.657,0.614,5.232,3.528,6.046c2.836,0.791,5.962-0.854,6.569-3.457
		C127.324,20.217,125.082,17.701,121.522,17.677 M121.543,6.488c-1.911-0.013-3.225,1.099-3.264,2.765
		c-0.042,1.792,1.216,2.995,3.151,3.012c2.004,0.017,3.202-1.068,3.196-2.896C124.621,7.551,123.499,6.502,121.543,6.488"/>
</g>
</svg>
