<?xml version="1.0" encoding="utf-8"?>
<!-- Generator: Adobe Illustrator 15.0.0, SVG Export Plug-In . SVG Version: 6.00 Build 0)  -->
<!DOCTYPE svg PUBLIC "-//W3C//DTD SVG 1.1//EN" "http://www.w3.org/Graphics/SVG/1.1/DTD/svg11.dtd">
<svg version="1.1" id="Layer_1" xmlns="http://www.w3.org/2000/svg" xmlns:xlink="http://www.w3.org/1999/xlink" x="0px" y="0px"
	 width="837.771px" height="374.622px" viewBox="0 0 837.771 374.622" enable-background="new 0 0 837.771 374.622"
	 xml:space="preserve">
<path fill="#FFFFFF" d="M81.053,1.473l24.703-0.042l0.014,16.58h0.167l18.824-16.608
	l27.771-0.042l-22.706,20.35l26.352,27.733l-31.347,0.052l-18.878-19.628h-0.155l0.033,19.657l-24.699,0.042L81.053,1.473
	L81.053,1.473z"/>
<path fill="#FFFFFF" d="M191.685,0c28.104-0.057,35.758,5.792,35.786,25.448
	c0.042,19.661-7.596,25.515-35.697,25.562c-27.955,0.047-35.597-5.792-35.618-25.444C156.114,5.91,163.75,0.047,191.685,0L191.685,0
	L191.685,0z M191.75,41.101c11.055-0.01,10.213-12.2,10.208-16.097c-0.011-4.062,0.141-15.107-10.26-15.088
	c-10.4,0.014-10.215,11.055-10.215,15.116C181.493,28.934,180.867,41.119,191.75,41.101L191.75,41.101z"/>
<path fill="#FFFFFF" d="M280.757,31.208l0.042,18.367l25.348-0.046l-0.082-48.098
	l-25.349,0.056l0.026,16.565l-18.19,0.024L262.523,1.51l-25.351,0.042l0.082,48.088l25.346-0.038l-0.03-18.362L280.757,31.208
	L280.757,31.208z"/>
<path fill="#FFFFFF" d="M318.081,1.412l26.01-0.038l0.049,36.551
	c0,0,20.642,0.141,23.385,0.131c2.772-0.004,4.399-2.438,4.399-2.438l0.019,13.808l-53.783,0.089L318.081,1.412L318.081,1.412z"/>
<path fill="#FFFFFF" d="M432.329,17.152c-5.373-4.216-9.93-5.501-14.802-5.647
	c-4.873,0.005-9.258,1.623-9.244,4.39c0,2.434,3.252,3.246,14.794,5.666c9.589,1.928,15.771,6.632,15.775,15.562
	c0.014,9.916-16.865,15.628-31.979,15.656c-10.712,0.023-18.847-1.764-26.162-4.99l-0.026-13.499
	c4.563,4.719,14.634,7.144,22.429,7.12c4.23,0,6.346-0.657,6.341-4.062c-0.014-2.116-2.612-3.902-10.73-5.356
	c-15.45-2.729-20.646-7.115-20.665-14.427C378.041,6.848,391.524,0.652,408.09,0.628c8.926-0.019,17.064,0.136,24.212,3.363
	L432.329,17.152L432.329,17.152z"/>
<path fill="#FFFFFF" d="M357.441,21.007l1.78-3.086c-5.368-2.584-7.004-9.24-4.247-12.978
	c2.912-4.076,11.031-5.872,15.436,0.455c3.736,5.348,0.168,9.906-1.45,11.21C367.345,17.912,357.441,21.007,357.441,21.007
	L357.441,21.007z"/>
<path fill="#FFFFFF" d="M445.302,11.069c-0.94,0.952-2.093,1.426-3.43,1.44c-1.354,0-2.49-0.474-3.433-1.43
	c-0.933-0.948-1.421-2.083-1.421-3.443c0-1.333,0.474-2.477,1.421-3.424c0.942-0.938,2.078-1.426,3.415-1.426
	c1.334,0,2.49,0.473,3.438,1.417c0.952,0.933,1.419,2.082,1.419,3.428C446.711,8.967,446.253,10.117,445.302,11.069z M438.913,4.686
	c-0.812,0.82-1.229,1.8-1.215,2.959c0,1.163,0.408,2.148,1.215,2.973c0.816,0.821,1.806,1.22,2.955,1.22
	c1.153,0,2.139-0.403,2.955-1.233c0.816-0.811,1.205-1.811,1.205-2.969c0-1.164-0.408-2.148-1.213-2.96
	c-0.822-0.821-1.817-1.219-2.961-1.219C440.705,3.457,439.729,3.855,438.913,4.686z M441.772,4.953c0.649,0,1.132,0.07,1.447,0.183
	c0.553,0.244,0.829,0.694,0.829,1.351c0,0.479-0.173,0.831-0.513,1.051c-0.191,0.122-0.444,0.22-0.777,0.262
	c0.422,0.075,0.727,0.258,0.912,0.526c0.199,0.286,0.289,0.553,0.289,0.821V9.54c0.004,0.127,0.004,0.254,0.028,0.394
	c0,0.141,0.014,0.24,0.042,0.272l0.026,0.071l-0.87,0.004c-0.006-0.019-0.015-0.033-0.015-0.047
	c-0.015-0.028-0.015-0.037-0.022-0.061l-0.015-0.179V9.573c0-0.615-0.174-1.018-0.495-1.215c-0.209-0.117-0.559-0.169-1.058-0.169
	l-0.743,0.005l0.006,2.087h-0.941V4.953H441.772z M442.776,5.792c-0.232-0.141-0.617-0.188-1.141-0.188h-0.797v1.918h0.846
	c0.404,0,0.704-0.042,0.901-0.117c0.37-0.146,0.549-0.422,0.549-0.835C443.135,6.177,443.015,5.928,442.776,5.792z"/>
<path fill="#FFFFFF" d="M0.562,355.184l13.988-65.672c2.819-13.349,10.839-18.693,23.092-18.693h47.615
	c9.583,0,14.76,4.547,14.76,11.156c0,3.142-1.407,11.316-5.492,15.393c-2.674,2.678-5.661,4.09-13.988,4.09H49.584l-2.2,10.684h19.8
	c9.111,0,13.979,4.25,13.979,10.521c0,2.992-1.256,10.684-5.182,14.613c-2.514,2.515-5.342,3.94-13.354,3.94H42.666l-2.978,14.296
	c-2.514,11.787-8.013,17.752-19.164,17.752H14.55C4.178,373.264-1.949,366.975,0.562,355.184z"/>
<path fill="#FFFFFF" d="M90.745,328.483c0-29.539,19.164-60.017,58.761-60.017c33.931,0,49.326,21.997,49.326,46.03
	c0,29.543-19.161,60.025-58.756,60.025C106.133,374.522,90.745,352.524,90.745,328.483z M160.971,317.014
	c0-8.484-5.027-14.769-13.348-14.769c-11.632,0-19.018,11.148-19.018,23.723c0,8.479,5.03,14.774,13.35,14.774
	C153.594,340.743,160.971,329.575,160.971,317.014z"/>
<path fill="#FFFFFF" d="M272.987,336.502l3.611,5.643c5.656,9.123,8.637,10.684,15.088,11.951c1.414,0.305,1.097,19.643-22.785,19.643
	c-13.508,0-19.647-5.184-27.499-20.91l-5.025-9.896h-1.726l-2.676,12.579c-2.514,11.787-8.015,17.752-19.166,17.752h-5.189
	c-10.358,0-16.5-6.289-13.989-18.08l13.989-65.672c2.833-13.349,10.841-18.693,23.099-18.693h26.711
	c29.229,0,42.742,11.156,42.742,31.727C300.171,319.055,290.745,332.094,272.987,336.502z M248.946,317.797
	c9.586,0,12.564-5.027,12.564-10.679c0-5.032-3.444-7.706-9.732-7.706h-8.494l-3.921,18.385H248.946z"/>
<path fill="#FFFFFF" d="M308.018,357.238l-5.342-76.839c-0.16-3.143,10.689-10.37,23.099-10.37c13.039,0,17.903,9.118,17.275,19.956
	l-1.572,32.059l14.464-31.111c4.081-8.494,12.88-12.569,21.043-12.569c11.475,0,18.552,4.396,18.552,14.127l0.153,30.487
	l22.151-53.415c0.317-0.793,31.114-1.576,31.114,17.75c0,3.931-1.257,8.489-6.124,17.128l-29.704,55.152
	c-5.651,10.685-13.829,13.672-23.725,13.672c-13.195,0-20.116-4.709-20.421-16.026l-0.628-29.702l-16.022,32.057
	c-5.668,11.309-15.093,13.672-24.52,13.672C315.246,373.264,308.797,368.555,308.018,357.238z"/>
<path fill="#FFFFFF" d="M425.53,358.176c0-6.754,2.035-10.361,7.38-18.85l36.45-58.928c3.934-6.43,9.122-10.37,24.818-10.37
	c16.661,0,21.37,4.563,22.471,10.37l14.467,80.924c0.623,3.452-10.535,12.725-21.842,12.725c-10.221,0-15.404-5.656-17.135-17.129
	l-0.154-1.406h-28.746l-10.056,18.854C452.705,375.155,425.53,375.155,425.53,358.176z M491.354,328.483l-3.457-23.104
	l-13.51,23.104H491.354z"/>
<path fill="#FFFFFF" d="M612.643,336.502l3.609,5.643c5.666,9.123,8.653,10.684,15.098,11.951c1.405,0.305,1.095,19.643-22.796,19.643
	c-13.511,0-19.637-5.184-27.488-20.91l-5.034-9.896h-1.726l-2.672,12.579c-2.514,11.787-8.02,17.752-19.166,17.752h-5.183
	c-10.382,0-16.498-6.289-13.989-18.08l13.989-65.672c2.825-13.349,10.836-18.693,23.097-18.693h26.706
	c29.22,0,42.737,11.156,42.737,31.727C639.825,319.055,630.393,332.094,612.643,336.502z M588.604,317.797
	c9.587,0,12.575-5.027,12.575-10.679c0-5.032-3.465-7.706-9.752-7.706h-8.478l-3.933,18.385H588.604z"/>
<path fill="#FFFFFF" d="M636.673,348.28l12.561-58.768c2.828-13.349,10.844-18.693,23.102-18.693h22.469
	c30.176,0,48.08,17.6,48.08,42.416c0,30.641-20.423,59.246-63.474,59.246h-24.047C640.118,372.481,633.048,365.089,636.673,348.28z
	 M684.429,340.269c13.038,0,20.74-10.844,20.74-22.626c0-9.113-5.492-14.614-14.141-14.614h-6.755l-7.851,37.24H684.429z"/>
<path fill="#FFFFFF" d="M378.829,229.088c0-12.758,3.862-19.578,13.956-35.613l68.865-111.317
	c7.417-12.171,17.222-19.604,46.902-19.604c31.479,0,40.387,8.616,42.46,19.604l27.306,152.892
	c1.182,6.514-19.9,24.023-41.264,24.023c-19.287,0-29.092-10.676-32.36-32.354l-0.29-2.664h-54.334l-18.996,35.631
	C430.183,261.155,378.829,261.155,378.829,229.088z M503.218,172.993l-6.533-43.637l-25.538,43.637H503.218z"/>
<path fill="#FFFFFF" d="M218.759,212.418l24.637-114.881c5.047-22.56,15.14-32.967,35.627-32.967h10.684
	c19.896,0,31.463,10.999,26.72,33.549l-21.082,97.378h44.538c19.577,0,30.277,9.502,30.277,22.865
	c0,6.533-2.975,23.15-11.282,31.461c-5.352,5.352-11.578,8.312-28.507,8.312h-76.29
	C225.283,258.134,211.916,244.181,218.759,212.418z"/>
<path fill="#FFFFFF" d="M29.707,223.981l26.415-124.09c5.352-25.218,20.487-35.307,43.633-35.307H144
	c52.542,0,81.337,20.187,81.337,62.028c0,46.616-27.897,83.124-95.884,83.124h-23.448l-3.27,14.85
	c-4.744,22.265-15.149,33.549-36.22,33.549H56.122C36.541,258.134,24.95,246.245,29.707,223.981z M132.722,157.783
	c13.363,0,22.556-8.011,22.556-24.347c0-9.483-6.531-15.13-19.589-15.13h-11.582l-8.316,39.478H132.722z"/>
<path fill="#FFFFFF" d="M657.654,182.017c0-51.599,40.706-93.677,91.756-95.905c-8.394-21.063-41.828-23.465-42.333-22.687
	l-54.624,68.571l-13.069-36.813c-7.115-19.872-16.021-29.093-30.871-29.093c-29.088,0-46.01,22.574-44.224,26.139l43.628,93.494
	l-8.901,41.27c-4.747,22.265,6.819,34.153,26.434,34.153h10.382c19.713,0,30.068-9.666,35.049-30.517
	C662.487,216.368,657.654,199.762,657.654,182.017z"/>
<path fill="#FFFFFF" d="M442.336,369.268c-0.003-0.007-0.005-0.016-0.008-0.023c-0.196,0.05-0.389,0.108-0.584,0.157
	C441.939,369.353,442.141,369.318,442.336,369.268z"/>
<path fill="#FFFFFF" d="M506.205,298.916c0.028-0.183,0.043-0.368,0.07-0.552c-0.027,0.184-0.057,0.366-0.086,0.549
	C506.195,298.913,506.2,298.916,506.205,298.916z"/>
<path fill="#FFFFFF" d="M506.711,294.966c0.026-0.246,0.069-0.485,0.094-0.731c-0.003,0-0.008-0.002-0.011-0.002
	C506.769,294.479,506.737,294.72,506.711,294.966z"/>
<path fill="#FFFFFF" d="M664.849,181.37h0.002c0.007-1.587,0.058-3.164,0.148-4.73C664.908,178.206,664.854,179.78,664.849,181.37z"/>
<path fill="#FFFFFF" d="M798.603,168.069h-9.699l-0.543,2.537c15.289,10.273,32.043,17.051,48.961,19.823
	c0.285-2.871,0.449-5.776,0.449-8.722c0-47.755-38.712-86.454-86.463-86.454c-46.059,0-83.682,35.99-86.309,81.384
	c11.488,1.377,23.192,4.568,34.615,9.554l6.581-30.848c2.06-9.216,6.189-13.47,14.559-13.47h4.486
	c7.991,0,12.728,4.859,10.791,13.958l-9.792,45.823c0.592,0.438,1.187,0.863,1.772,1.313c22.386,17.151,37.701,39.526,44.843,62.474
	c33.098-8.494,58.528-36.084,63.861-70.332c-17.045-2.776-33.934-9.467-49.411-19.561l-6.895,32.307
	c-1.938,9.089-6.19,13.689-14.793,13.689h-4.127c-8.011,0-12.729-4.844-10.788-13.938l8.489-39.538h-8.489
	c-8.011,0-12.373-3.879-12.373-9.339c0-2.659,1.211-9.455,4.606-12.851c1.88-1.875,4.048-3.03,9.01-3.315
	c-9.45-12.704-16.282-26.758-19.947-41.368c-0.301-1.191-0.55-2.378-0.803-3.565c1.53-0.366,3.077-0.689,4.644-0.971
	c0.239,1.125,0.479,2.251,0.76,3.381c3.781,15.072,11.106,29.53,21.289,42.446h44.589c8.002,0,12.374,3.874,12.374,9.339
	c0,2.654-1.221,9.46-4.606,12.846C808.054,166.849,805.507,168.069,798.603,168.069z"/>
<path fill="#FFFFFF" d="M725.149,206.752l-0.285,1.332c-1.929,9.222-6.186,13.461-14.541,13.461h-4.493
	c-7.997,0-12.727-4.844-10.785-13.938l3.562-16.69c-11.141-4.972-22.562-8.156-33.756-9.547c-0.002,0.113-0.011,0.225-0.011,0.337
	c0,47.747,38.706,86.469,86.468,86.469c5.799,0,11.463-0.582,16.945-1.672C761.347,244.61,746.616,223.209,725.149,206.752z"/>
</svg>
