<svg version="1.1" id="Layer_1" xmlns="http://www.w3.org/2000/svg" xmlns:xlink="http://www.w3.org/1999/xlink" x="0px" y="0px"
	 width="112.144px" height="28.505px" viewBox="0 0 112.144 28.505" enable-background="new 0 0 112.144 28.505"
	 xml:space="preserve">
<g>
	<path fill="#FFFFFF" d="M6.52,10.116v5.73c0,0.497,0,0.936,0.087,1.403c0.117,0.643,0.41,1.053,1.082,1.053s1.14-0.146,1.695-0.439
		l1.491,3.451c-1.111,0.643-2.719,0.965-4.035,0.965c-2.543,0-4.327-1.434-4.853-3.655c-0.175-0.761-0.205-1.608-0.205-2.427v-6.081
		H0V6.256h1.783L2.66,2.894H6.52v3.362h3.859v3.859H6.52z"/>
	<path fill="#FFFFFF" d="M24.967,21.927l-0.409-2.018c-1.316,1.754-3.187,2.369-4.795,2.369c-1.52,0-3.011-0.819-4.034-2.076
		c-1.287-1.638-1.403-3.625-1.403-5.818V6.256h4.736v7.952c0,1.023,0,2.222,0.351,3.011c0.351,0.789,1.082,1.082,1.871,1.082
		c1.023,0,2.28-0.556,2.923-1.637V6.256h4.736v15.67H24.967z"/>
	<path fill="#FFFFFF" d="M38.502,8.127c0.877-1.345,2.046-2.222,3.538-2.222c0.79,0,1.55,0.175,2.105,0.409l-1.169,3.917
		c-0.438-0.234-0.965-0.351-1.491-0.351c-1.052,0-2.134,0.585-2.66,1.433v10.613h-4.736V6.256h4.005L38.502,8.127z"/>
	<path fill="#FFFFFF" d="M50.664,6.256l0.409,2.017c1.316-1.754,3.187-2.368,4.795-2.368c1.52,0,3.011,0.818,4.034,2.076
		c1.287,1.637,1.404,3.625,1.404,5.818v8.127h-4.737v-7.952c0-1.023,0-2.222-0.351-3.011c-0.351-0.79-1.082-1.082-1.871-1.082
		c-1.023,0-2.28,0.556-2.923,1.638v10.408h-4.736V6.256H50.664z"/>
	<path fill="#FFFFFF" d="M76.098,21.927l-4.181-6.549l-2.31,2.689v3.859h-2.66V0h2.66v14.618l0.059,0.029l5.905-7.338h3.275
		l-5.117,5.964l5.613,8.654H76.098z"/>
	<path fill="#FFFFFF" d="M84.429,15.29c0.176,2.515,1.9,4.707,4.707,4.707c1.93,0,3.479-0.701,4.357-2.368l1.929,1.228
		c-1.462,2.34-3.45,3.422-6.402,3.422c-4.648,0-7.251-3.393-7.251-7.661c0-4.356,3.188-7.66,7.251-7.66
		c3.858,0,6.665,2.895,6.665,6.812c0,0.497-0.058,1.14-0.116,1.52H84.429z M84.634,13.156h8.303
		c-0.116-2.076-1.695-3.917-3.888-3.917C86.681,9.238,85.161,10.963,84.634,13.156z"/>
	<path fill="#FFFFFF" d="M101.503,7.309l3.8,11.081h0.059l3.889-11.081h2.894l-8.215,21.196l-2.339-0.906l2.31-6.11L98.55,7.309
		H101.503z"/>
</g>
</svg>
