<svg version="1.1" id="Layer_1" xmlns="http://www.w3.org/2000/svg" xmlns:xlink="http://www.w3.org/1999/xlink" x="0px" y="0px"
	 width="429.333px" height="255.641px" viewBox="0 0 429.333 255.641" enable-background="new 0 0 429.333 255.641"
	 xml:space="preserve">
<g>
	<polyline class="robin-line--right" stroke-miterlimit="10" points="215,207.305 265.667,199.641 318,187.308 331.667,198.308 
		372,215.974 372.667,238.308 360.545,246.482 364.679,253.641 403.333,253.641 403.667,236.641 420.333,248.308 427.333,244.308 
		427.333,236.641 403.667,177.974 399.667,153.308 369,113.641 316.333,98.974 215,97.317 	"/>
	<polyline class="robin-line--left" stroke-miterlimit="10" points="215,97.317 173.667,96.641 137.333,80.641 113.333,50.308 
		72,28.974 53,4.641 50.667,15.974 55.333,28.974 55.333,37.641 48.667,40.308 33.667,56.308 32.333,66.641 2,90.641 2,94.974 
		21.667,109.308 33.333,109.308 46.667,104.308 57.667,106.308 68.333,123.974 72.333,148.641 82.333,165.308 82.667,178.641 
		95,185.641 117.333,197.308 124.667,230.641 105.333,245.308 109.667,253.641 140,253.641 143.333,245.308 151,237.308 
		158.667,212.641 186.333,211.641 215,207.305 	"/>
</g>
</svg>
