<svg version="1.1" xmlns="http://www.w3.org/2000/svg" xmlns:xlink="http://www.w3.org/1999/xlink" x="0px" y="0px"
	 width="100px" height="26.993px" viewBox="0 36.503 100 26.993" enable-backgrounfill="#FFFFFF" d="new 0 36.503 100 26.993" xml:space="preserve" 
	>
<g>
	<path fill="#FFFFFF" d="M13.008,55.184c0,0.905,0.015,1.859,0.946,2.008v0.147H10.46v-0.147c0.932-0.131,0.946-0.986,0.946-1.893v-6.633
		c0-0.904-0.014-1.859-0.946-2.007V46.51h3.494v0.149c-0.931,0.165-0.946,1.004-0.946,1.909V55.184"/>
	<path fill="#FFFFFF" d="M33.621,55.227c0,0.982,0.013,1.918,0.803,1.949v0.146H31.46v-0.146c0.79-0.031,0.803-0.886,0.803-1.853v-7.765
		c-1.507,0-2.445,0.628-2.915,2.191l-0.111-0.048l0.605-3.191c0.161,0.274,0.494,0.21,0.729,0.21h4.742
		c0.235,0,0.568,0.064,0.729-0.21l0.604,3.191l-0.111,0.048c-0.47-1.562-1.407-2.191-2.915-2.191L33.621,55.227"/>
	<path fill="#FFFFFF" d="M40.227,55.111c-0.104,0.379-0.209,0.774-0.209,1.171c0,0.528,0.34,0.856,0.72,0.891v0.147h-2.669v-0.147
		c0.314-0.083,0.484-0.182,0.68-0.526c0.235-0.43,0.445-1.057,0.589-1.535l2.106-7.007c0.092-0.313,0.197-0.627,0.197-0.956
		c0-0.297-0.183-0.479-0.406-0.528v-0.148h2.905v0.148c-0.235,0.083-0.38,0.264-0.38,0.594c0,0.199,0.065,0.462,0.118,0.644
		l2.237,8.113c0.196,0.594,0.275,1.039,0.799,1.204v0.148h-2.971v-0.148c0.471-0.132,0.641-0.577,0.641-1.153
		c0-1.502-1.491-3.48-3.599-3.529L40.227,55.111 M42.374,47.708l-1.191,3.958c0.969-0.018,1.963,0.43,2.644,1.318L42.374,47.708z"/>
	<path fill="#FFFFFF" d="M53.154,57.507c-0.125-0.08-0.273-0.063-0.411-0.049l-1.513,0.097c-1.313,0-2.625-0.354-3.651-1.451
		c-1.075-1.145-1.613-2.821-1.613-4.596c0-1.404,0.388-2.822,1.238-3.741c0.9-0.952,1.988-1.242,3.114-1.242l1.374,0.145l0.4,0.048
		c0.201,0,0.4-0.096,0.488-0.338l0.574,3.047l-0.1,0.049c-0.464-1.403-1.601-2.113-2.738-2.113c-0.825,0-1.488,0.242-2.051,1.081
		c-0.538,0.806-0.8,1.886-0.8,2.951c0,2.808,1.475,5.322,3.763,5.322c1.326,0,2.227-1.017,2.764-2.516l0.125,0.064L53.154,57.507"/>
	<path fill="#FFFFFF" d="M55.738,55.119c-0.104,0.378-0.209,0.771-0.209,1.167c0,0.526,0.34,0.854,0.717,0.887v0.147h-2.66v-0.147
		c0.313-0.081,0.482-0.18,0.68-0.524c0.234-0.428,0.442-1.053,0.586-1.528l2.101-6.982c0.092-0.312,0.196-0.624,0.196-0.953
		c0-0.295-0.184-0.476-0.404-0.525v-0.15h2.895v0.148c-0.234,0.082-0.377,0.263-0.377,0.591c0,0.197,0.064,0.46,0.116,0.641
		l2.229,8.083c0.195,0.592,0.273,1.035,0.797,1.199v0.148h-2.961v-0.148c0.47-0.131,0.639-0.574,0.639-1.148
		c0-1.496-1.486-3.467-3.586-3.518L55.738,55.119 M57.877,47.743l-1.188,3.942c0.965-0.016,1.957,0.429,2.636,1.315L57.877,47.743z"
		/>
	<path fill="#FFFFFF" d="M10.253,51.451l-0.154,0.051c-0.445-1.765-2.188-3.813-4.9-3.813c-1.705,0-1.802,0.512-1.802,2.252v1.356h2.072
		c0.892,0,1.569-0.076,1.589-1.483l0.175-0.077l0.755,5.734l-0.156,0.051C7.096,52.577,6.089,52.5,3.998,52.5H3.397v7.525
		c0,1.461,0.02,2.943,1.279,3.123v0.205H0.008v-0.229c1.24-0.229,1.258-1.562,1.258-2.944V49.865c0-1.383-0.019-2.868-1.258-3.124
		V46.51h8.347c0.349,0,0.775,0.078,1.027-0.332L10.253,51.451"/>
	<path fill="#FFFFFF" d="M19.833,46.51c1.465,0,1.952,0.56,1.952,1.679c0,1.35-1.084,2.156-1.952,2.715c1.044,1.416,1.803,3.16,2.373,4.904
		c0.204,0.576,0.366,1.252,0.949,1.383v0.147h-2.86v-0.147c0.298-0.065,0.501-0.23,0.501-0.643c0-0.626-0.475-1.761-0.732-2.304
		l-1.396-2.452l-0.136-0.214l-1.572,0.657v2.947c0,1.035,0.014,1.857,0.881,2.008v0.146h-3.254v-0.146
		c0.868-0.166,0.882-1.004,0.882-1.91v-6.616c0-0.905-0.014-1.859-0.882-2.007V46.51H19.833 M16.959,51.465
		c0.963-0.33,3.348-1.366,3.348-2.897c0-1.185-0.826-1.3-1.626-1.3c-0.393,0-1.315,0-1.559,0.362
		c-0.148,0.197-0.163,0.724-0.163,1.02V51.465z"/>
	<path fill="#FFFFFF" d="M29.163,49.854l-0.106,0.033c-0.407-1.499-1.645-2.521-2.908-2.521c-0.645,0-1.658,0.363-1.658,1.368
		c0,0.79,0.882,1.038,1.355,1.219l1.843,0.691c0.591,0.23,1.223,0.494,1.683,1.037c0.5,0.594,0.711,1.334,0.711,2.19
		c0,2.405-1.881,3.903-3.724,3.903c-0.922,0-1.764-0.526-2.382-0.526c-0.197,0-0.329,0.132-0.447,0.296l-0.763-4.117l0.119-0.049
		c0.473,1.928,1.697,3.441,3.381,3.441c1.409,0,2.5-1.021,2.5-2.272c0-1.433-1.039-1.812-1.934-2.157l-1.75-0.676
		c-1.026-0.396-1.908-0.988-1.908-2.503c0-1.976,1.697-2.701,3.013-2.701c0.96,0,1.407,0.363,1.973,0.363
		c0.224,0,0.343-0.099,0.474-0.296L29.163,49.854"/>
	<path fill="#FFFFFF" d="M65.716,46.51c1.377,0,2.583,0.262,3.671,1.406c1.01,1.062,1.627,2.68,1.627,4.329c0,1.454-0.474,2.957-1.392,3.905
		c-1.035,1.076-2.136,1.109-3.422,1.109h-3.604v-0.146c0.84-0.163,0.854-0.996,0.854-1.879v-6.583c0-0.898-0.014-1.846-0.854-1.993
		V46.51H65.716 M64.891,54.4c0,1.438-0.027,2.107,1.351,2.107c2.071,0,3.198-1.601,3.198-4.148c0-2.712-1.285-5.097-3.565-5.097
		c-1.049,0-0.981,0.654-0.981,1.715V54.4H64.891z"/>
	<path fill="#FFFFFF" d="M77.795,49.615l-0.105,0.049c-0.56-1.66-1.982-2.399-3.354-2.399c-0.918,0-1.225,0.181-1.225,1.38v0.937h1.023
		c0.627,0,1.504,0.099,1.479-0.986l0.119-0.05l0.52,3.681l-0.105,0.049c-0.467-1.922-1.305-1.922-2.715-1.922h-0.318v4.404
		c0,1.28,0.025,1.808,1.371,1.808c1.9,0,3.164-1.103,3.99-3.172l0.133,0.049l-1.131,4.093c-0.134-0.229-0.373-0.214-0.586-0.214
		h-6.105v-0.148c0.852-0.164,0.863-1.002,0.863-1.889v-6.622c0-0.888-0.012-1.84-0.863-2.005v-0.147h5.693
		c0.252,0,0.52,0.033,0.719-0.197L77.795,49.615"/>
	<path fill="#FFFFFF" d="M79.966,47.645v7.523c0,0.938,0.013,1.906,0.837,2.004v0.148h-2.512v-0.148c0.824-0.146,0.837-0.984,0.837-1.889v-6.621
		c0-0.903-0.013-1.856-0.837-2.004V46.51h3.259v0.148c-0.309,0.098-0.257,0.443-0.052,0.937l1.482,3.45l1.469-3.04
		c0.322-0.674,0.516-1.215,0.09-1.347V46.51h3.104v0.148c-0.822,0.165-0.836,1.002-0.836,1.889v6.62c0,0.903,0.014,1.84,0.836,2.004
		v0.147h-3.092v-0.147c0.825-0.114,0.838-0.969,0.838-1.889v-7.639l-2.82,5.832L79.966,47.645"/>
	<path fill="#FFFFFF" d="M94.848,60.003c0,1.536,0.021,3.048,1.248,3.125v0.229h-4.604v-0.229c1.229-0.18,1.247-1.512,1.247-2.946V55.57
		l-3.07-6.455c-0.461-0.948-0.938-2.28-1.88-2.382v-0.231h4.95v0.231c-1.632,0.128-0.769,2.177-0.173,3.432l1.783,3.817l1.766-3.868
		c0.845-1.871,1.4-3.253,0.02-3.381v-0.231h3.723v0.231c-0.979,0.153-1.42,1.229-1.918,2.203l-3.09,6.634v4.433"/>
	<rect fill="#FFFFFF" x="8.477" y="60.48" width="79.361" height="3.016"/>
	<rect fill="#FFFFFF" y="43.832" width="39.937" height="0.639"/>
	<rect fill="#FFFFFF" x="59.672" y="43.832" width="40.328" height="0.639"/>
	<path fill="#FFFFFF" d="M43.224,42.837c0,0.713,0.009,1.393,0.573,1.416v0.105h-2.116v-0.105c0.564-0.023,0.574-0.644,0.574-1.346v-5.64
		c-1.076,0-1.747,0.457-2.082,1.592l-0.08-0.035l0.433-2.317c0.114,0.199,0.352,0.153,0.52,0.153h3.385
		c0.167,0,0.405,0.046,0.52-0.153l0.433,2.317l-0.079,0.035c-0.336-1.135-1.006-1.592-2.082-1.592L43.224,42.837"/>
	<path fill="#FFFFFF" d="M47.604,42.825c0,0.667,0.011,1.358,0.63,1.429v0.105h-2.321v-0.105c0.619-0.105,0.628-0.714,0.628-1.347v-4.721
		c0-0.644-0.009-1.323-0.628-1.429V36.65h2.321v0.106c-0.62,0.082-0.63,0.69-0.63,1.346v0.692h2.882v-0.609
		c-0.01-0.679,0-1.37-0.628-1.429V36.65h2.322v0.106c-0.619,0.094-0.619,0.703-0.631,1.346v4.723
		c0.012,0.656,0.012,1.335,0.631,1.429v0.105h-2.322v-0.105c0.618-0.059,0.618-0.679,0.628-1.347v-3.55h-2.882V42.825"/>
	<path fill="#FFFFFF" d="M57.605,38.86l-0.067,0.035c-0.351-1.184-1.247-1.711-2.108-1.711c-0.578,0-0.771,0.129-0.771,0.985v0.668h0.645
		c0.395,0,0.946,0.07,0.93-0.704l0.076-0.035l0.326,2.626l-0.066,0.035c-0.293-1.372-0.82-1.372-1.707-1.372h-0.202v3.142
		c0,0.915,0.017,1.289,0.862,1.289c1.196,0,1.992-0.785,2.512-2.263l0.083,0.036l-0.71,2.918c-0.084-0.164-0.235-0.152-0.369-0.152
		h-3.844v-0.105c0.537-0.118,0.545-0.715,0.545-1.348v-4.725c0-0.633-0.008-1.313-0.545-1.43v-0.105h3.584
		c0.158,0,0.326,0.024,0.451-0.141L57.605,38.86"/>
</g>
</svg>
