<svg xmlns="http://www.w3.org/2000/svg"><symbol id="icon-pdf"><title>icon-pdf</title> <g> <path d="M21.128,41.067c-0.515,0-0.933-0.417-0.933-0.933V28.949c0-0.514,0.418-0.933,0.933-0.933h11.187
		c0.514,0,0.934,0.419,0.934,0.933c0,0.517-0.42,0.934-0.934,0.934H22.061v10.254C22.061,40.652,21.642,41.067,21.128,41.067"/> <path d="M21.128,42H1.865C0.833,42,0,41.168,0,40.137V28.949c0-1.029,0.833-1.863,1.864-1.863s1.864,0.834,1.864,1.863v9.322
		h16.627l10.094-10.093V3.729H1.865C0.833,3.729,0,2.895,0,1.863S0.833,0,1.865,0h30.449c1.03,0,1.864,0.832,1.864,1.863v27.085
		c0,0.497-0.196,0.972-0.546,1.318L22.446,41.454C22.097,41.807,21.623,42,21.128,42"/> <path d="M8.652,10.925v2.208c0,2.714-1.309,4.192-3.976,4.192h-1.26V23.7H0.748V6.731h3.928C7.343,6.731,8.652,8.21,8.652,10.925
		 M3.417,9.158v5.744h1.26c0.849,0,1.309-0.388,1.309-1.6v-2.547c0-1.211-0.46-1.598-1.309-1.598H3.417z"/> <path d="M9.888,6.731h4.217c2.666,0,3.976,1.479,3.976,4.193v8.583c0,2.715-1.31,4.192-3.976,4.192H9.888V6.731z M12.554,9.158
		v12.119h1.505c0.848,0,1.357-0.437,1.357-1.65v-8.82c0-1.214-0.51-1.647-1.357-1.647L12.554,9.158L12.554,9.158z"/> <polygon points="22.443,14.27 25.884,14.27 25.884,16.696 22.443,16.696 22.443,23.7 19.774,23.7 19.774,6.731 26.831,6.731 
		26.831,9.158 22.443,9.158 	"/> </g> </symbol><symbol viewBox="-11.246 -9.736 48.511 42" id="icon-print"><title>icon-print</title> <g> <path d="M-10.314,32.264c-0.512,0-0.932-0.419-0.932-0.933V15.712c0-0.512,0.28-1.244,0.623-1.626l4.845-5.384
		c0.343-0.381,1.043-0.694,1.555-0.694h2.598c0.513,0,0.932,0.42,0.932,0.932v1.495c0,0.514-0.419,0.933-0.932,0.933h-1.076
		c-0.512,0-1.21,0.311-1.555,0.694l-2.953,3.286c-0.344,0.382-0.625,1.11-0.625,1.626v10.995c0,0.514,0.42,0.932,0.932,0.932h39.873
		c0.514,0,0.933-0.418,0.933-0.932V16.974c0-0.514-0.278-1.244-0.623-1.626l-2.957-3.286c-0.342-0.381-1.041-0.694-1.555-0.694
		h-1.072c-0.514,0-0.932-0.419-0.932-0.933V8.941c0-0.512,0.418-0.932,0.932-0.932h2.599c0.513,0,1.21,0.313,1.553,0.695l4.796,5.38
		c0.342,0.382,0.621,1.116,0.621,1.628v15.619c0,0.514-0.421,0.933-0.933,0.933H-10.314z M0.239,15.515
		c-0.513,0-0.932-0.42-0.932-0.932v-15.46c0-0.513,0.297-1.229,0.661-1.593l6.609-6.609c0.36-0.36,1.078-0.657,1.589-0.657h17.667
		c0.512,0,0.933,0.419,0.933,0.932v23.387c0,0.512-0.421,0.932-0.933,0.932H0.239z M2.459,11.382c0,0.512,0.418,0.933,0.932,0.933
		h19.292c0.513,0,0.932-0.421,0.932-0.933V-5.656c0-0.512-0.419-0.932-0.932-0.932H11.318c-0.514,0-0.932,0.42-0.932,0.932v6.063
		c0,0.514-0.421,0.932-0.932,0.932H3.391c-0.514,0-0.932,0.421-0.932,0.932V11.382z"/> </g> </symbol><symbol viewBox="0 0 154.465 118.617" id="logo-main"><title>logo-main</title> <polygon points="54.066,0 0,118.617 27.212,118.617 54.066,59.7 80.921,118.617 108.133,118.617 "/> <polygon points="100.399,0 46.333,118.617 73.544,118.617 100.399,59.7 127.255,118.617 154.466,118.617 "/> </symbol><symbol viewBox="0 0 429.333 255.641" id="robin"><title>robin</title> <g> <polyline class="robin-line--right" stroke-miterlimit="10" points="215,207.305 265.667,199.641 318,187.308 331.667,198.308 
		372,215.974 372.667,238.308 360.545,246.482 364.679,253.641 403.333,253.641 403.667,236.641 420.333,248.308 427.333,244.308 
		427.333,236.641 403.667,177.974 399.667,153.308 369,113.641 316.333,98.974 215,97.317 	"/> <polyline class="robin-line--left" stroke-miterlimit="10" points="215,97.317 173.667,96.641 137.333,80.641 113.333,50.308 
		72,28.974 53,4.641 50.667,15.974 55.333,28.974 55.333,37.641 48.667,40.308 33.667,56.308 32.333,66.641 2,90.641 2,94.974 
		21.667,109.308 33.333,109.308 46.667,104.308 57.667,106.308 68.333,123.974 72.333,148.641 82.333,165.308 82.667,178.641 
		95,185.641 117.333,197.308 124.667,230.641 105.333,245.308 109.667,253.641 140,253.641 143.333,245.308 151,237.308 
		158.667,212.641 186.333,211.641 215,207.305 	"/> </g> </symbol></svg>