<svg id="Layer_1" data-name="Layer 1" xmlns="http://www.w3.org/2000/svg" viewBox="0 0 240.97 58.23">
	<path d="M59.9,57.66c-2.41,0-3.53-.88-3.53-3.37V33.19c0-6-2.81-9.79-8.75-9.79a11.33,11.33,0,0,0-9.95,5.54,10.71,10.71,0,0,1,.48,3.21V52.28h4.49a.85.85,0,0,1,1,1v3.45a.89.89,0,0,1-1,1H27.32a.91.91,0,0,1-1-1V53.28a.91.91,0,0,1,.81-1h4.44V33.19c0-6-2.89-9.79-8.83-9.79a11.37,11.37,0,0,0-10.66,6.88v22H16a.85.85,0,0,1,1,1v3.45a.89.89,0,0,1-1,1H1a.91.91,0,0,1-1-1V53.28a.91.91,0,0,1,.81-1h4.6V23.57H1a.91.91,0,0,1-1-1V19.15a.91.91,0,0,1,.81-1h8c1.76,0,2.57.48,2.57,2.41l-.16,4h.24c1-1.61,4.33-7,13-7,5.78,0,9.95,2.49,12,6.66,1.2-1.77,4.65-6.66,12.92-6.66,8.67,0,13.56,5.54,13.56,14l.08,20.7h4.49a.91.91,0,0,1,1,1v3.45a.91.91,0,0,1-.81,1H59.95Z" fill="#fff"/>
	<path d="M75.17,57.66a.91.91,0,0,1-1-1V53.28a.91.91,0,0,1,.81-1h4.6V23.57H75.17a.91.91,0,0,1-1-1V19.15a.91.91,0,0,1,.81-1h10.3a.85.85,0,0,1,1,1V52.28h4.25a.91.91,0,0,1,1,1v3.45a.91.91,0,0,1-.81,1H75.17Zm7.62-43.72A4.42,4.42,0,0,1,78.3,9.59V9.53a4.5,4.5,0,1,1,9,0,4.42,4.42,0,0,1-4.43,4.41h-.08Z" fill="#fff"/>
	<path d="M127.12,57.66c-2.17,0-3-1-3.77-3.21L104.65,6.08H99.52a.88.88,0,0,1-1-1V1a.91.91,0,0,1,.81-1h18.24a.85.85,0,0,1,1,1V5.11a.85.85,0,0,1-1,1h-5.46L128.4,49.19h.48L145.17,6.08h-5.45a.91.91,0,0,1-1-1V1a.91.91,0,0,1,.81-1h18.24a.91.91,0,0,1,1,1V5.11a.91.91,0,0,1-.81,1h-5.49L133.94,54.49c-.72,2.09-1.44,3.21-3.69,3.21h-3.13Z" fill="#fff"/>
	<path d="M191.17,57.66c-2.33,0-3.45-.88-3.45-3.37v-3h-.24c-.88,1.85-3.85,6.9-12.52,6.9s-13.88-5.54-14-14V23.57h-4.49a.85.85,0,0,1-1-1V19.15a.89.89,0,0,1,1-1h7.7c2.33,0,3.45.88,3.45,3.37v21.1c0,6,2.89,9.79,8.83,9.79a11.24,11.24,0,0,0,10.67-6.82v-22h-4.33a.85.85,0,0,1-1-1V19.15a.88.88,0,0,1,1-1h10a.85.85,0,0,1,1,1V52.28h4.43a.91.91,0,0,1,1,1v3.45a.91.91,0,0,1-.81,1h-7.19Z" fill="#fff"/>
	<path d="M210.78,38.73c.4,9.39,7,13.88,13.32,13.88,6.9,0,11.63-4.33,12.76-6.18a.92.92,0,0,1,1.44-.24l2.17,2.17a1,1,0,0,1,.37,1.37l0,.07c-1,1.76-6.5,8.43-17.09,8.43-10.83,0-19.74-7.62-19.74-20.46,0-13,9.31-20.14,18.93-20.14,11.47,0,18.13,7.62,17.89,20.06a1,1,0,0,1-1,1h-29Zm23.39-4.9c-.32-6.5-4.17-10.91-11.07-10.91-5.53,0-11.15,3.21-12.11,10.91Z" fill="#fff"/>
</svg>