<svg id="Layer_1" data-name="Layer 1" xmlns="http://www.w3.org/2000/svg" viewBox="0 0 232.5 31.1">
	<path fill="#FFFFFF" d="M23.4,9.7h-2.9l-0.8-4.3c-0.7-0.7-1.5-1.2-2.4-1.6c-1.1-0.4-2.3-0.6-3.5-0.6C11,3.1,8.3,4.4,6.6,6.7
		C4.9,9.2,4,12.2,4.1,15.3v0.5c-0.1,3.1,0.7,6.1,2.5,8.7c1.6,2.2,4.1,3.5,6.9,3.4c1.3,0,2.5-0.2,3.7-0.6c1-0.3,1.8-0.9,2.6-1.6
		l0.8-4.3h2.9v5.4c-1.1,1.3-2.4,2.3-3.9,3c-1.9,0.9-3.9,1.3-6,1.3c-3.7,0.1-7.3-1.5-9.7-4.3c-2.6-3.1-4-7-3.8-11v-0.4
		c-0.2-4,1.2-7.9,3.7-11c2.4-2.9,6-4.5,9.7-4.3c2.1,0,4.1,0.4,6,1.3c1.5,0.7,2.8,1.7,3.9,3L23.4,9.7L23.4,9.7z"/>
	<path fill="#FFFFFF" d="M27,28l2.2-0.3L39.8,0.5h3.5l10.3,27.2l2.3,0.3v2.6h-8.7V28l2.3-0.4l-2-5.5H35.4l-2,5.5l2.2,0.4v2.6H27V28z
		 M36.7,18.6h9.6L41.6,5.7h-0.1L36.7,18.6z"/>
	<path fill="#FFFFFF" d="M87.9,6.5h-0.1L78,30.6h-2.7L65.6,6.5h-0.1l0.4,12.2v8.7l3.4,0.6v2.6H58.4V28l3.4-0.6V3.7l-3.4-0.6V0.5H67
		L76.6,25h0.1l9.6-24.5h8.6v2.6l-3.4,0.6v23.7l3.4,0.6v2.6H84.1V28l3.4-0.6v-8.7L87.9,6.5z"/>
	<path fill="#FFFFFF" d="M111.7,0.5c3.2,0,5.7,0.8,7.5,2.5c1.8,1.7,2.8,4.1,2.7,6.5c0.1,2.5-0.9,4.9-2.7,6.6c-1.8,1.6-4.3,2.5-7.5,2.5
		h-6.4v8.9l3.3,0.6v2.6H97.8V28l3.4-0.6V3.7l-3.4-0.6V0.5H111.7z M105.3,15.3h6.4c1.7,0.1,3.4-0.5,4.6-1.6c1-1.1,1.6-2.6,1.5-4.1
		c0-1.5-0.5-3-1.5-4.2c-1.2-1.2-2.9-1.8-4.6-1.7h-6.4V15.3L105.3,15.3z"/>
	<path fill="#FFFFFF" d="M124.8,28l3.4-0.6V3.7l-3.4-0.6V0.5h23.3v7.2h-3.5l-0.3-4h-12v10.4h11.7v3.2h-11.7v10.1l3.4,0.6v2.6h-10.8V28z"
		/>
	<path fill="#FFFFFF" d="M161.1,3.1l-3.2,0.4l6.3,12.3l6.3-12.3l-3.2-0.4V0.5h10.4v2.6l-2.6,0.4L166.2,20v7.4l3.4,0.6v2.6h-10.8V28
		l3.4-0.6v-7.7l-8.8-16.2l-2.5-0.4V0.5h10.4L161.1,3.1L161.1,3.1z"/>
	<path fill="#FFFFFF" d="M193.7,0.5c3.3,0,5.8,0.7,7.6,2.2c1.8,1.5,2.8,3.8,2.6,6.2c0,1.4-0.4,2.8-1.2,3.9c-0.9,1.2-2.1,2.1-3.5,2.7
		c1.5,0.4,2.7,1.3,3.5,2.6c0.8,1.4,1.1,2.9,1.1,4.5V25c0,0.7,0.1,1.4,0.4,2c0.2,0.4,0.7,0.7,1.2,0.8l1,0.1v2.7h-2.2
		c-1.3,0.1-2.7-0.5-3.4-1.6c-0.7-1.2-1-2.6-1-4v-2.4c0.1-1.5-0.4-2.9-1.4-4c-1-1-2.4-1.6-3.8-1.5h-6.5v10.3l3.4,0.6v2.6h-10.8V28
		l3.4-0.6V3.7l-3.4-0.6V0.5H193.7z M187.9,14h5.4c2.3,0,3.9-0.4,5-1.3c1.1-1,1.6-2.4,1.5-3.8c0.1-1.4-0.5-2.8-1.5-3.8
		c-1.3-1-3-1.5-4.6-1.4h-5.8V14z"/>
	<path fill="#FFFFFF" d="M209.1,30.6V28l3.4-0.6V3.7l-3.4-0.6V0.5h23.1v7.2h-3.5l-0.3-4h-11.9v9.7h11.5v3.2h-11.5v10.8h12.1l0.3-4h3.5
		v7.2L209.1,30.6L209.1,30.6z"/>
</svg>