<?xml version="1.0" encoding="utf-8"?>
<!-- Generator: Adobe Illustrator 18.1.1, SVG Export Plug-In . SVG Version: 6.00 Build 0)  -->
<svg version="1.1" id="Layer_1" xmlns="http://www.w3.org/2000/svg" xmlns:xlink="http://www.w3.org/1999/xlink" x="0px" y="0px"
	 viewBox="-293.9 194.1 241.5 39.7" enable-background="new -293.9 194.1 241.5 39.7" xml:space="preserve">
<path fill="#FFFFFF" d="M-199.8,220.3c0,0.4-2.9,1.6-3.6,1.8c-4.4,0-9,0.7-11-1.7c-2.3-3-0.4-6,3.4-8.4c2.6-0.6,4.2-2.8,7.5-2.1
	c0.5,0.1,1,0.6,1.2,0.9c1.2,1-1.1,1.6-1.2,2.6c-1.8,1.6-5.2,2.9-8.5,3.1c-0.3-0.4-1.1,0-1.3,0.3c0.3,1.2,2.3,2.2,4.6,2.8
	c1.4,0.1,2.7,0.2,4.3,0.1c0.3,0.3-0.2,0.5,0.2,0.8c3.2-0.3,0.2,0.2,3.4-0.3L-199.8,220.3 M-206.9,211.6c-4.1,1.5-4.6,2.8-4.9,3.4
	c4.2-0.6,6.2-1,6.5-2.6C-205.3,211.9-206.2,211.5-206.9,211.6z"/>
<path fill="none" stroke="#FFFFFF" stroke-width="1.1773" d="M-199.8,220.3c0,0.4-2.9,1.6-3.6,1.8c-4.4,0-9,0.7-11-1.7
	c-2.3-3-0.4-6,3.4-8.4c2.6-0.6,4.2-2.8,7.5-2.1c0.5,0.1,1,0.6,1.2,0.9c1.2,1-1.1,1.6-1.2,2.6c-1.8,1.6-5.2,2.9-8.5,3.1
	c-0.3-0.4-1.1,0-1.3,0.3c0.3,1.2,2.3,2.2,4.6,2.8c1.4,0.1,2.7,0.2,4.3,0.1c0.3,0.3-0.2,0.5,0.2,0.8c3.2-0.3,0.2,0.2,3.4-0.3
	L-199.8,220.3z M-206.9,211.6c-4.1,1.5-4.6,2.8-4.9,3.4c4.2-0.6,6.2-1,6.5-2.6C-205.3,211.9-206.2,211.5-206.9,211.6z"/>
<path fill="#FFFFFF" d="M-249.5,229.8c2.7,1.6,2.9,3.3,2.3,3.3c-0.7-0.1-4.7-3.2-4.9-3.4c0.4-0.2-0.4-0.2-0.4-0.6
	c0-1.7,3.1,0.1,0.4-2.4c-1.1-1.1-2.5-2.1-3.2-3.3c-1.4-3.9-4.1-7.5-2.8-11.8c-0.7-1.2-0.3-3-1.5-4.2c-0.4-0.9,0.3-2-0.6-2.8
	c0.4-0.6,0.8-1.4-0.1-1.8c-0.6-0.2-1.2-0.4-1.9-0.2c-1.8,0.4-2.5,1.4-2.5,2.3c-0.9,1-1.4,2.2-2.5,3.1c-0.2,1.1-1.5,2-1.8,3.1
	c-1.8,0.7,0,2.6-2.5,2.9c-1.8,0.8-4.2,1-5.8,2.1c-0.7,0.1-1.9-0.1-2.4-0.6c-0.2-1,2.3-1.3,2.1-2.3c1.2-0.4,0.7-1.5,1.3-2.1
	c-1.5-2.3-2.2-4.7-2.4-7c0.4-0.7-0.2-1.2,0.5-1.9c0.6-1.1-0.7,3.3-0.5,1.9c0,0-0.6-1.7-1.9-2.1c1.3,0.4-1.4-1.7-1-0.6
	c-0.9,0.6,0,1.2-0.9,1.8c0,1.5-1.5,2.9-1.5,4.3c-0.7,1.6,0,3.5-1,5.1c0.2,1.1,0.2,2.7-0.5,3.8c0.7,1.5-5.3,12.8-7.4,10.9
	c0.9-0.7,2.3-2.8,2.7-3.7c-0.6-1.1-1.6-1-0.8-2.2c0-0.9,0.4-1.7,0.6-2.5c1.1-0.9,0.2-2.2,1.4-3.2c0-1.6,0.4-3,1.4-4.5
	c-0.9-2,1-4.2,1.8-6.2c0.4-0.6,0.6-1.4,1.1-2c-0.2-1.4,0.9-2.5,1.7-3.7c0-0.7,0.6-1.6,1.9-2.1c0.7-0.1,1.4-0.5,2.2-0.2
	c4.9,2.8,1.2,6.2,3.8,9.5c-0.4,0.5,0.3,0.8,0.5,1.3c0.4,0.2,1.4,0.3,1.9,0.1c0.6-0.4,0.6-0.8,1.4-1.3c0.6-1.1,1.5-2.2,2.6-3.1
	c0-0.6,0-1.2,0.9-1.6c2.1-1.6,3.8-3.2,4.8-5.1c0.6-0.6,2-1,3.4-0.9c0.4,0,1,0.1,1.4,0.4c-0.4,0.4-0.2,0.8,0.3,1.1
	c0.6,1-0.5,2.2,0.4,3.2c-0.4,0.7,0.2,1.2,0.6,1.9c-0.2,1.8,0.2,3.4,0.8,5c0.9,0.7,0.2,1.5,0.5,2.2c0.4,0.9,0.7,2.1,0.2,3
	c0.7,0.9-0.4,2.2,0.4,3.3c0.7,1,0.9,2.2,0.8,3.3c1.4,1.3,0.6,3.1,2.4,4.4c0.2,1.6,3.1,2.7,3.4,4.4c-0.2,0.4,0.4,0.8,0.5,1.2
	C-247.5,231.1-249.5,229.9-249.5,229.8L-249.5,229.8"/>
<path fill="none" stroke="#FFFFFF" stroke-width="1.1773" d="M-249.5,229.8c2.7,1.6,2.9,3.3,2.3,3.3c-0.7-0.1-4.7-3.2-4.9-3.4
	c0.4-0.2-0.4-0.2-0.4-0.6c0-1.7,3.1,0.1,0.4-2.4c-1.1-1.1-2.5-2.1-3.2-3.3c-1.4-3.9-4.1-7.5-2.8-11.8c-0.7-1.2-0.3-3-1.5-4.2
	c-0.4-0.9,0.3-2-0.6-2.8c0.4-0.6,0.8-1.4-0.1-1.8c-0.6-0.2-1.2-0.4-1.9-0.2c-1.8,0.4-2.5,1.4-2.5,2.3c-0.9,1-1.4,2.2-2.5,3.1
	c-0.2,1.1-1.5,2-1.8,3.1c-1.8,0.7,0,2.6-2.5,2.9c-1.8,0.8-4.2,1-5.8,2.1c-0.7,0.1-1.9-0.1-2.4-0.6c-0.2-1,2.3-1.3,2.1-2.3
	c1.2-0.4,0.7-1.5,1.3-2.1c-1.5-2.3-2.2-4.7-2.4-7c0.4-0.7-0.2-1.2,0.5-1.9c0.6-1.1-0.7,3.3-0.5,1.9c0,0-0.6-1.7-1.9-2.1
	c1.3,0.4-1.4-1.7-1-0.6c-0.9,0.6,0,1.2-0.9,1.8c0,1.5-1.5,2.9-1.5,4.3c-0.7,1.6,0,3.5-1,5.1c0.2,1.1,0.2,2.7-0.5,3.8
	c0.7,1.5-5.3,12.8-7.4,10.9c0.9-0.7,2.3-2.8,2.7-3.7c-0.6-1.1-1.6-1-0.8-2.2c0-0.9,0.4-1.7,0.6-2.5c1.1-0.9,0.2-2.2,1.4-3.2
	c0-1.6,0.4-3,1.4-4.5c-0.9-2,1-4.2,1.8-6.2c0.4-0.6,0.6-1.4,1.1-2c-0.2-1.4,0.9-2.5,1.7-3.7c0-0.7,0.6-1.6,1.9-2.1
	c0.7-0.1,1.4-0.5,2.2-0.2c4.9,2.8,1.2,6.2,3.8,9.5c-0.4,0.5,0.3,0.8,0.5,1.3c0.4,0.2,1.4,0.3,1.9,0.1c0.6-0.4,0.6-0.8,1.4-1.3
	c0.6-1.1,1.5-2.2,2.6-3.1c0-0.6,0-1.2,0.9-1.6c2.1-1.6,3.8-3.2,4.8-5.1c0.6-0.6,2-1,3.4-0.9c0.4,0,1,0.1,1.4,0.4
	c-0.4,0.4-0.2,0.8,0.3,1.1c0.6,1-0.5,2.2,0.4,3.2c-0.4,0.7,0.2,1.2,0.6,1.9c-0.2,1.8,0.2,3.4,0.8,5c0.9,0.7,0.2,1.5,0.5,2.2
	c0.4,0.9,0.7,2.1,0.2,3c0.7,0.9-0.4,2.2,0.4,3.3c0.7,1,0.9,2.2,0.8,3.3c1.4,1.3,0.6,3.1,2.4,4.4c0.2,1.6,3.1,2.7,3.4,4.4
	c-0.2,0.4,0.4,0.8,0.5,1.2C-247.5,231.1-249.5,229.9-249.5,229.8L-249.5,229.8z"/>
<path fill="#FFFFFF" d="M-243.7,222.2c-1.7,0.5-3.3-0.1-4.9-0.3c-1.8-0.4-0.6-1.5-1.6-2.1c-2.1-2.8,1.4-5.2,4.6-7.4
	c0.9-0.2,2.4-0.5,3.1-0.1c0.9,0.1,1.2,1.1,2.5,0.7c0.9,1.5,3.2,2.6,2.9,4.2C-235.8,219.7-241.1,221-243.7,222.2 M-239.6,218.4
	c-0.6-1.3,0.3-3.1-3.1-3.8c-4,1.1-4.7,3.7-4.2,5.7c0.8,0.3,2,0.6,3.1,0.4C-242.3,220.1-240.2,219.5-239.6,218.4L-239.6,218.4
	L-239.6,218.4z"/>
<path fill="none" stroke="#FFFFFF" stroke-width="1.1773" d="M-243.7,222.2c-1.7,0.5-3.3-0.1-4.9-0.3c-1.8-0.4-0.6-1.5-1.6-2.1
	c-2.1-2.8,1.4-5.2,4.6-7.4c0.9-0.2,2.4-0.5,3.1-0.1c0.9,0.1,1.2,1.1,2.5,0.7c0.9,1.5,3.2,2.6,2.9,4.2
	C-235.8,219.7-241.1,221-243.7,222.2z M-239.6,218.4c-0.6-1.3,0.3-3.1-3.1-3.8c-4,1.1-4.7,3.7-4.2,5.7c0.8,0.3,2,0.6,3.1,0.4
	C-242.3,220.1-240.2,219.5-239.6,218.4L-239.6,218.4L-239.6,218.4z"/>
<path fill="#FFFFFF" d="M-217.3,222.3c-1.5-0.3-3.5-0.6-3.5-1.7c-0.8-1.8-0.2-4-4.2-4.9c-0.9-0.1-1.9-0.3-2.8-0.2
	c-3.7,1.7-2.9,4.4-5.2,6.4c-1.3,0.3-1.3,1.3-2.9,1c0-1,1.4-1.9,1.9-2.8c-0.2-3.6,2.2-10.7,3.5-13.9c0.9-0.9,0.6-2,0.8-3.3
	c0.4-3.1,1.7-2.8,2.2-4.4c0.8-0.5,0,0,1.8-1.5c1.6-1.4,1.3-3.3,4.4-1.5c-0.8,1.3-1.8,2.6-2.8,4c-1,1.2-1.4,2.3-3.3,3
	c-2,2.6-1,9.9-3,12.4c2-0.1,3.7-1.2,6-0.8c1.1,0.3,2.1,0.7,3.1,1c1.6,1.3,2.5,2.8,2.2,4.3C-219.6,220.7-213.7,220.9-217.3,222.3
	L-217.3,222.3"/>
<path fill="none" stroke="#FFFFFF" stroke-width="1.1773" d="M-217.3,222.3c-1.5-0.3-3.5-0.6-3.5-1.7c-0.8-1.8-0.2-4-4.2-4.9
	c-0.9-0.1-1.9-0.3-2.8-0.2c-3.7,1.7-2.9,4.4-5.2,6.4c-1.3,0.3-1.3,1.3-2.9,1c0-1,1.4-1.9,1.9-2.8c-0.2-3.6,2.2-10.7,3.5-13.9
	c0.9-0.9,0.6-2,0.8-3.3c0.4-3.1,1.7-2.8,2.2-4.4c0.8-0.5,0,0,1.8-1.5c1.6-1.4,1.3-3.3,4.4-1.5c-0.8,1.3-1.8,2.6-2.8,4
	c-1,1.2-1.4,2.3-3.3,3c-2,2.6-1,9.9-3,12.4c2-0.1,3.7-1.2,6-0.8c1.1,0.3,2.1,0.7,3.1,1c1.6,1.3,2.5,2.8,2.2,4.3
	C-219.6,220.7-213.7,220.9-217.3,222.3C-217.3,222.2-217.3,222.3-217.3,222.3z"/>
<path fill="#FFFFFF" d="M-184.7,211.8c1.6,0.8-1,1.8-0.5,2.7c-0.5,1.5,0.3,2.9,0.3,4.4c0,2-0.2,4.1-0.6,6.1c-0.2,1-2.1,1.8-1.4,2.9
	c-0.5,0.3-1,0.4-1.8,0.5c-1.1,1.7-4.7,1.2-7.3,1.3c-0.8-0.1-0.8-0.5-1.4-0.7c0-0.3,0.8-0.5,1.6-0.4c1.5,0.4,3.5,0.3,4.8-0.3
	c2.3-1,1.2-2.5,1.9-3.6c0.5-2.3,0.6-4.7,0.5-7c0-0.7,1-1.6-0.8-2.1c-3,0.6-6.9,1-9.6-0.2c-0.9-1-2.2-2.2-1-3.2
	c0.8-1.5,3.4-2.5,5.9-3.3c2.1-0.4,4.4-0.7,6.1,0.1c0.2,0.4,1,1,0.2,1.4c-2,0.5-3.3-0.9-5.2-0.3c-2.2,0.8-5.3,1.9-4.8,3.6
	c0.3,0.5,0.6,1,1.5,1.1c4.1,0.6,7.3-1.2,9.7-2.3C-186.2,212.2-185.4,211.9-184.7,211.8L-184.7,211.8"/>
<path fill="none" stroke="#FFFFFF" stroke-width="1.1773" d="M-184.7,211.8c1.6,0.8-1,1.8-0.5,2.7c-0.5,1.5,0.3,2.9,0.3,4.4
	c0,2-0.2,4.1-0.6,6.1c-0.2,1-2.1,1.8-1.4,2.9c-0.5,0.3-1,0.4-1.8,0.5c-1.1,1.7-4.7,1.2-7.3,1.3c-0.8-0.1-0.8-0.5-1.4-0.7
	c0-0.3,0.8-0.5,1.6-0.4c1.5,0.4,3.5,0.3,4.8-0.3c2.3-1,1.2-2.5,1.9-3.6c0.5-2.3,0.6-4.7,0.5-7c0-0.7,1-1.6-0.8-2.1
	c-3,0.6-6.9,1-9.6-0.2c-0.9-1-2.2-2.2-1-3.2c0.8-1.5,3.4-2.5,5.9-3.3c2.1-0.4,4.4-0.7,6.1,0.1c0.2,0.4,1,1,0.2,1.4
	c-2,0.5-3.3-0.9-5.2-0.3c-2.2,0.8-5.3,1.9-4.8,3.6c0.3,0.5,0.6,1,1.5,1.1c4.1,0.6,7.3-1.2,9.7-2.3
	C-186.2,212.2-185.4,211.9-184.7,211.8C-184.6,211.8-184.7,211.8-184.7,211.8z"/>
<path fill="#FFFFFF" d="M-165.9,213.4c2.3,2.2-0.7,4.5-0.6,6.8c0,1-0.5,2.2-0.6,3.2c-0.6,0.3-1.1,0.6-2.1,0.5c-2-1.5-1.6-3.2-1.5-5
	c-0.3-0.8,0.9-2-2.1-1.9c-2.4,0.3-5.1,0.5-6.5,1.8c0,0.3-0.5,1.9,1.7,2.2c2.3,0.1,6.4-1.1,6-0.4c-0.9,1.5-4.8,1.6-7.8,1.8
	c-1.2,0.1-2.6-0.6-2.8-1.1c-0.9-1.5,0.3-2.8,1.3-3.9c2.7-1.3,6.1-1.9,9.8-2.2c0.8-0.6,0-1.6,0-2.3c-0.3-1.5-1.6-3.1-4.5-3.8
	c-1.8-0.2-4.1-0.2-5.2,0.7c-0.3,0.5-1.1,0.8-2.1,0.5c-0.6-0.3,0.3-0.5,0.3-0.7c2.6-1,5.3-2.3,8.8-1.4
	C-170.3,209.6-168.8,211.6-165.9,213.4L-165.9,213.4"/>
<path fill="none" stroke="#FFFFFF" stroke-width="1.1773" d="M-165.9,213.4c2.3,2.2-0.7,4.5-0.6,6.8c0,1-0.5,2.2-0.6,3.2
	c-0.6,0.3-1.1,0.6-2.1,0.5c-2-1.5-1.6-3.2-1.5-5c-0.3-0.8,0.9-2-2.1-1.9c-2.4,0.3-5.1,0.5-6.5,1.8c0,0.3-0.5,1.9,1.7,2.2
	c2.3,0.1,6.4-1.1,6-0.4c-0.9,1.5-4.8,1.6-7.8,1.8c-1.2,0.1-2.6-0.6-2.8-1.1c-0.9-1.5,0.3-2.8,1.3-3.9c2.7-1.3,6.1-1.9,9.8-2.2
	c0.8-0.6,0-1.6,0-2.3c-0.3-1.5-1.6-3.1-4.5-3.8c-1.8-0.2-4.1-0.2-5.2,0.7c-0.3,0.5-1.1,0.8-2.1,0.5c-0.6-0.3,0.3-0.5,0.3-0.7
	c2.6-1,5.3-2.3,8.8-1.4C-170.3,209.6-168.8,211.6-165.9,213.4L-165.9,213.4L-165.9,213.4z"/>
<path fill="#FFFFFF" d="M-136.7,228.2c-0.3-0.1-0.8,0-1.1-0.1c-2.3-1.1-2.8-3.2-5.9-4c-2.4-2.1-3-5.2-7.3-6.5c-2-0.3-3.6,0.4-5,0.9
	c-2.5,1-0.7,3.7-4.6,3.9c-0.5-0.1-0.8-0.4-1.1-0.7c-0.2-1.5,0.6-3.6-0.9-5c-0.3,0-0.6-0.3-1.1-0.5c0.3-0.7,2-1.2,3.2-1.5
	c1.4-0.2,2.7,0.5,3,1c-0.2,0.3,0,0.5,0.5,0.7c3.2-0.1,6.4-1.9,9.7-0.6c4.2,1.7,3.2,4.9,6,7.3c2.7,1,3.6,2.8,6,4.2
	C-135,227.9-136,228-136.7,228.2"/>
<path fill="none" stroke="#FFFFFF" stroke-width="1.1773" d="M-136.7,228.2c-0.3-0.1-0.8,0-1.1-0.1c-2.3-1.1-2.8-3.2-5.9-4
	c-2.4-2.1-3-5.2-7.3-6.5c-2-0.3-3.6,0.4-5,0.9c-2.5,1-0.7,3.7-4.6,3.9c-0.5-0.1-0.8-0.4-1.1-0.7c-0.2-1.5,0.6-3.6-0.9-5
	c-0.3,0-0.6-0.3-1.1-0.5c0.3-0.7,2-1.2,3.2-1.5c1.4-0.2,2.7,0.5,3,1c-0.2,0.3,0,0.5,0.5,0.7c3.2-0.1,6.4-1.9,9.7-0.6
	c4.2,1.7,3.2,4.9,6,7.3c2.7,1,3.6,2.8,6,4.2C-135,227.9-136,228-136.7,228.2z"/>
<path fill="#FFFFFF" d="M-108,212.3c-2.4-0.6-4.8-1.1-7.5-1.6c-0.7-0.6-2.4-0.3-3.1-0.7c-1.1-0.1-1.4-0.5-2.1-0.7
	c0.4-0.4-0.8-0.7-1.3-1.1c-2-0.5-2-1.4-1.6-2.2c0.3,0,0-0.1,0-0.1c-0.4-0.1,0-0.2-0.1-0.3c0.3-0.8,0.3-1.7,1.9-2.2
	c-0.7-0.5,1.5-0.7,0.7-1.2c1.3-0.9,3.3-2.1,6-2.7c2.3-0.3,4-1,6.5-1c1.1,0.2,2.3,0.3,3.5,0.5c3.1,0.7,4.7,1.7,7,2.7
	c0.4,0.9-1.3,1.4-0.4,2c-0.7,0.4-1.8,0.1-2.7-0.1c-0.8-0.2,0.1-0.7-0.1-0.9c-1.3-1.2-4.4-2-7-2.6c-3.5,0.2-7.1,0.8-8.6,2.2
	c-1.1,0.2-1.5,1.2-1.5,2c-1.2,1.1-0.9,1.8-0.9,1.8c0,0.9-0.4,1.5,1.3,1.9c2,1.1,5.5,1.5,7.9,2.3c2,0.5,3.1,1.1,5.8,1.3"/>
<path fill="none" stroke="#FFFFFF" stroke-width="1.1773" d="M-108,212.3c-2.4-0.6-4.8-1.1-7.5-1.6c-0.7-0.6-2.4-0.3-3.1-0.7
	c-1.1-0.1-1.4-0.5-2.1-0.7c0.4-0.4-0.8-0.7-1.3-1.1c-2-0.5-2-1.4-1.6-2.2c0.3,0,0-0.1,0-0.1c-0.4-0.1,0-0.2-0.1-0.3
	c0.3-0.8,0.3-1.7,1.9-2.2c-0.7-0.5,1.5-0.7,0.7-1.2c1.3-0.9,3.3-2.1,6-2.7c2.3-0.3,4-1,6.5-1c1.1,0.2,2.3,0.3,3.5,0.5
	c3.1,0.7,4.7,1.7,7,2.7c0.4,0.9-1.3,1.4-0.4,2c-0.7,0.4-1.8,0.1-2.7-0.1c-0.8-0.2,0.1-0.7-0.1-0.9c-1.3-1.2-4.4-2-7-2.6
	c-3.5,0.2-7.1,0.8-8.6,2.2c-1.1,0.2-1.5,1.2-1.5,2c-1.2,1.1-0.9,1.8-0.9,1.8c0,0.9-0.4,1.5,1.3,1.9c2,1.1,5.5,1.5,7.9,2.3
	c2,0.5,3.1,1.1,5.8,1.3"/>
<path fill="#FFFFFF" d="M-77.8,222.1c-1.7,0.1-2.6-0.8-3.4-1.2c0.2-0.3-0.4-0.3-0.6-0.4c-1.2,0-2.1,0.6-3.3,0.5
	c-1.3,0.2-2.9,0-4-0.4c-0.6-0.5-1.8-0.9-1.7-1.5c-1.2-1.1-0.1-2.9,0.2-4c0-0.3-0.3-0.7,0.5-0.9c1.1,0.1,0.2,0.8,1.6,0.8
	c1.5,0.5,0.3,1.2,0.1,1.8c0,0.6-0.5,1.2,0,1.7c-0.2,0.6,1.2,0.8,2,1c1.3-0.3,3-0.3,3.8-1c0.9-0.8-0.5-1.8,0.4-2.6
	c-0.2-0.5,0.1-1,0.5-1.4c0.5-0.3,1.1-0.6,1.8-0.4c0.9,0.3,0.8,0.9,0.8,1.4c-0.1,1,0.8,2.1,0,3.1c0.2,1,1.1,2,2,3
	C-77.2,221.7-77,222.1-77.8,222.1"/>
<path fill="none" stroke="#FFFFFF" stroke-width="1.1773" d="M-77.8,222.1c-1.7,0.1-2.6-0.8-3.4-1.2c0.2-0.3-0.4-0.3-0.6-0.4
	c-1.2,0-2.1,0.6-3.3,0.5c-1.3,0.2-2.9,0-4-0.4c-0.6-0.5-1.8-0.9-1.7-1.5c-1.2-1.1-0.1-2.9,0.2-4c0-0.3-0.3-0.7,0.5-0.9
	c1.1,0.1,0.2,0.8,1.6,0.8c1.5,0.5,0.3,1.2,0.1,1.8c0,0.6-0.5,1.2,0,1.7c-0.2,0.6,1.2,0.8,2,1c1.3-0.3,3-0.3,3.8-1
	c0.9-0.8-0.5-1.8,0.4-2.6c-0.2-0.5,0.1-1,0.5-1.4c0.5-0.3,1.1-0.6,1.8-0.4c0.9,0.3,0.8,0.9,0.8,1.4c-0.1,1,0.8,2.1,0,3.1
	c0.2,1,1.1,2,2,3C-77.2,221.7-77,222.1-77.8,222.1z"/>
<path fill="#FFFFFF" d="M-56.9,221.5c-2.4-2.1-2.5-4-6.7-5.3c-2-0.3-3.6,0.4-5,0.9c-2.5,1-0.7,3.7-4.6,3.9c-0.5-0.1-0.8-0.4-1.1-0.7
	c-0.2-1.5,0.6-3.6-0.9-5c-0.3,0-0.6-0.3-1.1-0.5c0.3-0.7,2-1.2,3.2-1.5c1.4-0.1,2.7,0.5,3,1c-0.2,0.3,0,0.5,0.5,0.7
	c3.2-0.2,6.4-1.9,9.7-0.6c4.2,1.7,7.7,10.1,6.9,8.5L-56.9,221.5"/>
<path fill="none" stroke="#FFFFFF" stroke-width="1.1773" d="M-56.9,221.5c-2.4-2.1-2.5-4-6.7-5.3c-2-0.3-3.6,0.4-5,0.9
	c-2.5,1-0.7,3.7-4.6,3.9c-0.5-0.1-0.8-0.4-1.1-0.7c-0.2-1.5,0.6-3.6-0.9-5c-0.3,0-0.6-0.3-1.1-0.5c0.3-0.7,2-1.2,3.2-1.5
	c1.4-0.1,2.7,0.5,3,1c-0.2,0.3,0,0.5,0.5,0.7c3.2-0.2,6.4-1.9,9.7-0.6c4.2,1.7,7.7,10.1,6.9,8.5L-56.9,221.5z"/>
<path fill="#FFFFFF" d="M-109.8,210.3c1.4,0.5,2.3,1,4.2,1.2c3,1.3,7.9,1.7,8.7,4.1c1.4,1.8,5.6,3.7,2.8,7.7
	c-0.9,0.6-0.6,1.3-1.6,1.9v0.6c-1.4,1-1.4,2.7-4.5,2.9c-2.4,1-5.8,1.1-8.7,1.7c-1.3,0.1-3.2,0.4-4.6-0.3c-2.1,0.1-10.5-1.9-10.8-3.1
	l-1.1-0.9c0-1.3-1.4-4.4-0.4-4.2c1.3,0.2,4.2,3.7,3.8,4.2c1.3,1.2,4.2,1.3,6.2,2.1c1.8,0.2,3.7,0.3,5.4,0.4c2.3-0.2,8.4-3,10.1-3.5
	c0.6-0.7,0.9-1.5,2.1-2c-0.3-0.4,0.2-0.6,0.4-0.9c-0.2-0.7,1-1.5,0.1-2.1c-3.4-1.1-0.2-3.5-2.6-4.9c-1.3-0.7-2.4-1.5-4.5-1.9
	c-1.3-0.1-2.2-0.7-3.4-0.9c-1.8-0.6-3.5-1-5.5-1.6c-0.5-0.6-1.8-0.3-2.3-0.7c-0.8-0.1-1-0.5-1.5-0.6"/>
<path fill="none" stroke="#FFFFFF" stroke-width="1.1773" d="M-109.8,210.3c1.4,0.5,2.3,1,4.2,1.2c3,1.3,7.9,1.7,8.7,4.1
	c1.4,1.8,5.6,3.7,2.8,7.7c-0.9,0.6-0.6,1.3-1.6,1.9v0.6c-1.4,1-1.4,2.7-4.5,2.9c-2.4,1-5.8,1.1-8.7,1.7c-1.3,0.1-3.2,0.4-4.6-0.3
	c-2.1,0.1-10.5-1.9-10.8-3.1l-1.1-0.9c0-1.3-1.4-4.4-0.4-4.2c1.3,0.2,4.2,3.7,3.8,4.2c1.3,1.2,4.2,1.3,6.2,2.1
	c1.8,0.2,3.7,0.3,5.4,0.4c2.3-0.2,8.4-3,10.1-3.5c0.6-0.7,0.9-1.5,2.1-2c-0.3-0.4,0.2-0.6,0.4-0.9c-0.2-0.7,1-1.5,0.1-2.1
	c-3.4-1.1-0.2-3.5-2.6-4.9c-1.3-0.7-2.4-1.5-4.5-1.9c-1.3-0.1-2.2-0.7-3.4-0.9c-1.8-0.6-3.5-1-5.5-1.6c-0.5-0.6-1.8-0.3-2.3-0.7
	c-0.8-0.1-1-0.5-1.5-0.6"/>
<path fill="none" stroke="#FFFFFF" stroke-width="0.1256" d="M-206.9,211.7c-3.1,1.2-3.5,2.2-3.8,2.6c3.2-0.4,4.8-0.8,5-2
	C-205.6,212-206.3,211.6-206.9,211.7z"/>
</svg>
